<svg xmlns="http://www.w3.org/2000/svg" xmlns:xlink="http://www.w3.org/1999/xlink" version="1.1" width="256" height="256" viewBox="0 0 256 256" xml:space="preserve">

<defs>
</defs>
<g style="stroke: none; stroke-width: 0; stroke-dasharray: none; stroke-linecap: butt; stroke-linejoin: miter; stroke-miterlimit: 10; fill: none; fill-rule: nonzero; opacity: 1;" transform="translate(1.4065934065934016 1.4065934065934016) scale(2.81 2.81)" >
	<circle cx="55.22" cy="45" r="27.5" style="stroke: none; stroke-width: 1; stroke-dasharray: none; stroke-linecap: butt; stroke-linejoin: miter; stroke-miterlimit: 10; fill: rgb(248,204,29); fill-rule: nonzero; opacity: 1;" transform="  matrix(1 0 0 1 0 0) "/>
	<path d="M 68.614 56.784 c -0.22 0 -0.441 -0.072 -0.626 -0.221 L 54.593 45.779 C 54.356 45.589 54.22 45.303 54.22 45 V 31.709 c 0 -0.552 0.447 -1 1 -1 s 1 0.448 1 1 v 12.812 l 13.022 10.483 c 0.431 0.347 0.498 0.977 0.152 1.406 C 69.196 56.656 68.907 56.784 68.614 56.784 z" style="stroke: none; stroke-width: 1; stroke-dasharray: none; stroke-linecap: butt; stroke-linejoin: miter; stroke-miterlimit: 10; fill: rgb(0,0,0); fill-rule: nonzero; opacity: 1;" transform=" matrix(1 0 0 1 0 0) " stroke-linecap="round" />
	<path d="M 41.326 27.628 H 16.809 c -0.552 0 -1 -0.448 -1 -1 s 0.448 -1 1 -1 h 24.517 c 0.552 0 1 0.448 1 1 S 41.878 27.628 41.326 27.628 z" style="stroke: none; stroke-width: 1; stroke-dasharray: none; stroke-linecap: butt; stroke-linejoin: miter; stroke-miterlimit: 10; fill: rgb(0,0,0); fill-rule: nonzero; opacity: 1;" transform=" matrix(1 0 0 1 0 0) " stroke-linecap="round" />
	<path d="M 41.326 64.372 H 16.809 c -0.552 0 -1 -0.447 -1 -1 s 0.448 -1 1 -1 h 24.517 c 0.552 0 1 0.447 1 1 S 41.878 64.372 41.326 64.372 z" style="stroke: none; stroke-width: 1; stroke-dasharray: none; stroke-linecap: butt; stroke-linejoin: miter; stroke-miterlimit: 10; fill: rgb(0,0,0); fill-rule: nonzero; opacity: 1;" transform=" matrix(1 0 0 1 0 0) " stroke-linecap="round" />
	<path d="M 55.22 73.215 c -0.553 0 -1 -0.447 -1 -1 v -2.84 c 0 -0.553 0.447 -1 1 -1 s 1 0.447 1 1 v 2.84 C 56.22 72.768 55.772 73.215 55.22 73.215 z" style="stroke: none; stroke-width: 1; stroke-dasharray: none; stroke-linecap: butt; stroke-linejoin: miter; stroke-miterlimit: 10; fill: rgb(0,0,0); fill-rule: nonzero; opacity: 1;" transform=" matrix(1 0 0 1 0 0) " stroke-linecap="round" />
	<path d="M 55.22 21.625 c -0.553 0 -1 -0.448 -1 -1 v -2.839 c 0 -0.552 0.447 -1 1 -1 s 1 0.448 1 1 v 2.839 C 56.22 21.177 55.772 21.625 55.22 21.625 z" style="stroke: none; stroke-width: 1; stroke-dasharray: none; stroke-linecap: butt; stroke-linejoin: miter; stroke-miterlimit: 10; fill: rgb(0,0,0); fill-rule: nonzero; opacity: 1;" transform=" matrix(1 0 0 1 0 0) " stroke-linecap="round" />
	<path d="M 82.434 46 h -2.839 c -0.553 0 -1 -0.448 -1 -1 s 0.447 -1 1 -1 h 2.839 c 0.553 0 1 0.448 1 1 S 82.986 46 82.434 46 z" style="stroke: none; stroke-width: 1; stroke-dasharray: none; stroke-linecap: butt; stroke-linejoin: miter; stroke-miterlimit: 10; fill: rgb(0,0,0); fill-rule: nonzero; opacity: 1;" transform=" matrix(1 0 0 1 0 0) " stroke-linecap="round" />
	<path d="M 30.844 46 H 1 c -0.552 0 -1 -0.448 -1 -1 s 0.448 -1 1 -1 h 29.844 c 0.552 0 1 0.448 1 1 S 31.396 46 30.844 46 z" style="stroke: none; stroke-width: 1; stroke-dasharray: none; stroke-linecap: butt; stroke-linejoin: miter; stroke-miterlimit: 10; fill: rgb(0,0,0); fill-rule: nonzero; opacity: 1;" transform=" matrix(1 0 0 1 0 0) " stroke-linecap="round" />
	<path d="M 55.22 79.78 c -8.019 0 -15.844 -2.796 -22.036 -7.872 c -0.427 -0.351 -0.489 -0.98 -0.139 -1.407 c 0.351 -0.427 0.981 -0.488 1.408 -0.14 c 5.834 4.784 13.21 7.419 20.767 7.419 C 73.295 77.78 88 63.075 88 45 S 73.295 12.22 55.22 12.22 c -7.557 0 -14.932 2.635 -20.767 7.419 c -0.427 0.35 -1.057 0.288 -1.408 -0.139 c -0.35 -0.427 -0.288 -1.058 0.139 -1.408 c 6.192 -5.077 14.018 -7.873 22.036 -7.873 C 74.397 10.22 90 25.822 90 45 S 74.397 79.78 55.22 79.78 z" style="stroke: none; stroke-width: 1; stroke-dasharray: none; stroke-linecap: butt; stroke-linejoin: miter; stroke-miterlimit: 10; fill: rgb(0,0,0); fill-rule: nonzero; opacity: 1;" transform=" matrix(1 0 0 1 0 0) " stroke-linecap="round" />
</g>
</svg>