<svg width="225" height="175" viewBox="0 0 225 175" fill="none" xmlns="http://www.w3.org/2000/svg">
<path d="M159.192 92.6504V119.687H191.388V146.72H223.617V173.757H44.9165V92.6504H159.192Z" fill="#4CE6FF"/>
<path d="M44.9154 174.929H223.616C224.393 174.929 225 174.413 225 173.758V146.721C225 146.065 224.389 145.55 223.616 145.55H192.775V119.684C192.775 119.029 192.164 118.513 191.391 118.513H160.579V92.6476C160.579 91.992 159.968 91.4766 159.195 91.4766H44.9154C44.1383 91.4766 43.5315 91.992 43.5315 92.6476V173.758C43.5315 174.413 44.1424 174.929 44.9154 174.929ZM222.228 172.59H46.2994V93.8187H157.803V119.684C157.803 120.34 158.414 120.855 159.187 120.855H190.003V146.721C190.003 147.377 190.614 147.892 191.387 147.892H222.228V172.59Z" fill="#1600E5"/>
<path d="M63.5631 92.6543V119.691H95.7632V146.724H127.988V173.761H2.37959V92.6543H63.5631Z" fill="#B3F4FF"/>
<path d="M2.37847 174.929H127.987C128.764 174.929 129.371 174.413 129.371 173.758V146.721C129.371 146.065 128.76 145.55 127.987 145.55H97.146V119.684C97.146 119.029 96.5351 118.513 95.7621 118.513H64.9501V92.6476C64.9501 91.992 64.3392 91.4766 63.5662 91.4766H2.38263C1.60547 91.4766 0.998703 91.992 0.998703 92.6476V173.758C0.998703 174.413 1.60963 174.929 2.38263 174.929H2.37847ZM126.599 172.59H3.76237V93.8187H62.1739V119.684C62.1739 120.34 62.7849 120.855 63.5579 120.855H94.3699V146.721C94.3699 147.377 94.9808 147.892 95.7538 147.892H126.595V172.59H126.599Z" fill="#1600E5"/>
<path d="M95.7626 120.856H159.19C159.967 120.856 160.574 120.34 160.574 119.685C160.574 119.029 159.963 118.514 159.19 118.514H95.7626C94.9854 118.514 94.3786 119.029 94.3786 119.685C94.3786 120.34 94.9895 120.856 95.7626 120.856Z" fill="#1600E5"/>
<path d="M127.987 147.895H191.386C192.163 147.895 192.77 147.379 192.77 146.724C192.77 146.068 192.159 145.553 191.386 145.553H127.987C127.21 145.553 126.603 146.068 126.603 146.724C126.603 147.379 127.214 147.895 127.987 147.895Z" fill="#1600E5"/>
<path d="M112.573 91.9448C112.783 91.6433 113.132 91.4785 113.502 91.4785H161.116C161.42 91.4785 161.72 91.5942 161.93 91.8291C162.14 92.0395 162.279 92.341 162.279 92.6461V118.442H176.918C177.267 118.442 177.617 118.606 177.848 118.883L185.829 129.216C186.224 129.728 186.133 130.454 185.619 130.85L169.377 143.49C169.167 143.655 168.912 143.725 168.657 143.725H168.517C168.213 143.68 167.937 143.539 167.748 143.283L140.592 108.137L132.775 120.24C132.565 120.566 132.195 120.777 131.796 120.777H121.253C120.74 120.777 120.275 120.426 120.135 119.939L112.409 92.9792C112.269 92.6286 112.339 92.2569 112.573 91.9519V91.9448Z" fill="#1600E5"/>
<path d="M187.701 71.3435L98.129 18.6621L126.816 118.723L143.219 95.1755L171.413 131.69L187.677 119.029L159.602 82.6757L187.701 71.3435Z" fill="white"/>
<path d="M171.414 132.855C171.669 132.855 171.928 132.761 172.137 132.621L188.401 119.959C188.915 119.563 189.005 118.837 188.611 118.326L161.465 83.1894L188.146 72.4428C188.565 72.278 188.845 71.8818 188.869 71.4365C188.894 70.9912 188.684 70.5704 188.286 70.339L98.7134 17.6576C98.2941 17.4227 97.7803 17.4472 97.4099 17.7523C97.036 18.0573 96.8753 18.5482 97.015 18.99L125.698 119.051C125.814 119.497 126.188 119.798 126.631 119.893C127.075 119.963 127.515 119.777 127.774 119.402L143.269 97.1619L170.484 132.414C170.67 132.649 170.949 132.81 171.253 132.859H171.417L171.414 132.855ZM186.049 118.816L171.624 130.054L144.129 94.4726C143.894 94.1675 143.545 94.0062 143.174 94.0273C142.801 94.0273 142.451 94.2131 142.241 94.5181L127.236 116.057L100.041 21.1604L185.046 71.156L159.134 81.5976C158.785 81.7379 158.53 82.0184 158.435 82.369C158.341 82.7196 158.411 83.0948 158.645 83.3963L186.049 118.813V118.816Z" fill="#1600E5"/>
<rect x="3.28906" y="2.15625" width="82.9406" height="73.7108" fill="white"/>
<path d="M87.7095 77.5707H1.42578V0.927734H87.7095V77.5707ZM3.64796 75.1833H85.4873V3.31512H3.64796V75.1833Z" fill="#1600E5"/>
<path d="M46.9949 38.6895H9.3125V40.5922H46.9949V38.6895Z" fill="#1600E5"/>
<path d="M80.1372 51.0586H9.3125V52.9613H80.1372V51.0586Z" fill="#1600E5"/>
<path d="M80.1372 63.4238H9.3125V65.3265H80.1372V63.4238Z" fill="#1600E5"/>
<path d="M46.9949 25.8477H9.3125V27.7504H46.9949V25.8477Z" fill="#1600E5"/>
<path d="M46.9949 13.4785H9.3125V15.3812H46.9949V13.4785Z" fill="#1600E5"/>
<path d="M54.1679 32.8574L60.974 19.8638H64.2861L65.5964 32.8574H62.9577L62.7393 29.7637H58.5355L57.0068 32.8574H54.1679ZM59.6456 27.4525H62.6119L62.3753 24.104C62.3511 23.7522 62.3268 23.3943 62.3025 23.0303C62.2783 22.6663 62.2722 22.2963 62.2843 21.9202H62.2479C62.1266 22.2478 61.9932 22.5754 61.8476 22.9029C61.702 23.2184 61.5382 23.5641 61.3562 23.9402L59.6456 27.4525ZM70.1083 33.0394C69.6352 33.0394 69.1802 32.9241 68.7435 32.6936C68.3188 32.451 67.9731 32.0688 67.7062 31.5471C67.4392 31.0133 67.3058 30.3097 67.3058 29.4361C67.3058 28.7931 67.3725 28.1501 67.506 27.5071C67.6516 26.8641 67.8517 26.2575 68.1065 25.6873C68.3734 25.1171 68.6949 24.6136 69.071 24.1768C69.4471 23.7279 69.8718 23.3761 70.3449 23.1213C70.8302 22.8665 71.3519 22.7391 71.91 22.7391C72.3346 22.7391 72.6986 22.7998 73.0019 22.9211C73.3173 23.0424 73.5842 23.2123 73.8026 23.4307C74.0331 23.6491 74.2212 23.9038 74.3668 24.195H74.4395L74.9491 22.9211H77.0055L74.8945 32.8574H72.8927L73.0201 31.5653H72.9473C72.7168 31.8565 72.462 32.1113 72.1829 32.3297C71.9039 32.548 71.5945 32.724 71.2548 32.8574C70.9151 32.9787 70.533 33.0394 70.1083 33.0394ZM71.1638 30.8738C71.5278 30.8738 71.8675 30.7282 72.1829 30.437C72.4984 30.1459 72.7653 29.7698 72.9837 29.3087C73.2142 28.8477 73.378 28.3624 73.475 27.8529C73.5236 27.6102 73.5539 27.3737 73.566 27.1431C73.5903 26.9005 73.6024 26.6397 73.6024 26.3606C73.6024 25.936 73.4932 25.5902 73.2749 25.3233C73.0565 25.0443 72.7532 24.9047 72.3649 24.9047C72.098 24.9047 71.8493 24.9897 71.6188 25.1595C71.3883 25.3294 71.1699 25.5599 70.9637 25.8511C70.7695 26.1422 70.5997 26.4759 70.4541 26.852C70.3207 27.2281 70.2115 27.6284 70.1265 28.0531C70.0537 28.4656 70.0173 28.8841 70.0173 29.3087C70.0173 29.8304 70.1144 30.2247 70.3085 30.4916C70.5148 30.7464 70.7999 30.8738 71.1638 30.8738Z" fill="#1600E5"/>
</svg>
