<svg width="228" height="170" viewBox="0 0 228 170" fill="none" xmlns="http://www.w3.org/2000/svg">
<path d="M4.3102 167.26H222.88C223.537 167.26 224.052 166.744 224.052 166.088V2.09828C224.052 1.44196 223.537 0.926254 222.88 0.926254H4.26331C3.60709 0.926254 3.09148 1.44196 3.09148 2.09828V166.088C3.13835 166.721 3.65398 167.26 4.3102 167.26ZM5.48204 112.597H30.4655V137.584H5.48204V112.597ZM5.48204 85.265H30.4655V110.253H5.48204V85.265ZM5.48204 57.9335H30.4655V82.921H5.48204V57.9335ZM221.709 82.921H196.725V57.9335H221.709V82.921ZM221.709 110.253H196.725V85.265H221.709V110.253ZM32.8092 85.265H57.7926V110.253H32.8092V85.265ZM60.1129 85.265H85.0963V110.253H60.1129V85.265ZM87.44 85.265H112.423V110.253H87.44V85.265ZM114.767 85.265H139.751V110.253H114.767V85.265ZM142.094 85.265H167.078V110.253H142.094V85.265ZM169.421 85.265H194.381V110.253H169.398L169.421 85.265ZM194.381 82.921H169.398V57.9335H194.381V82.921ZM167.078 82.921H142.094V57.9335H167.078V82.921ZM139.751 82.921H114.767V57.9335H139.751V82.921ZM112.423 82.921H87.44V57.9335H112.423V82.921ZM85.0963 82.921H60.1129V57.9335H85.0963V82.921ZM57.7692 82.921H32.7857V57.9335H57.7692V82.921ZM32.8092 112.597H57.7926V137.584H32.8092V112.597ZM60.1129 112.597H85.0963V137.584H60.1129V112.597ZM87.44 112.597H112.423V137.584H87.44V112.597ZM114.767 112.597H139.751V137.584H114.767V112.597ZM142.094 112.597H167.078V137.584H142.094V112.597ZM169.421 112.597H194.381V137.584H169.398L169.421 112.597ZM196.725 112.597H221.709V137.584H196.725V112.597ZM221.709 55.5894H196.725V30.6019H221.709V55.5894ZM194.381 55.5894H169.398V30.6019H194.381V55.5894ZM167.078 55.5894H142.094V30.6019H167.078V55.5894ZM139.751 55.5894H114.767V30.6019H139.751V55.5894ZM112.423 55.5894H87.44V30.6019H112.423V55.5894ZM85.0963 55.5894H60.1129V30.6019H85.0963V55.5894ZM57.7692 55.5894H32.7857V30.6019H57.7692V55.5894ZM30.4655 55.5894H5.48204V30.6019H30.4655V55.5894ZM5.48204 139.928H30.4655V164.916H5.48204V139.928ZM32.8092 139.928H57.7926V164.916H32.8092V139.928ZM60.1129 139.928H85.0963V164.916H60.1129V139.928ZM87.44 139.928H112.423V164.916H87.44V139.928ZM114.767 139.928H139.751V164.916H114.767V139.928ZM142.094 139.928H167.078V164.916H142.094V139.928ZM169.421 139.928H194.381V164.916H169.398L169.421 139.928ZM221.709 164.916H196.725V139.928H221.709V164.916ZM221.709 28.2813H196.725V3.29375H221.709V28.2813ZM194.381 28.2813H169.398V3.29375H194.381V28.2813ZM167.078 28.2813H142.094V3.29375H167.078V28.2813ZM139.751 28.2813H114.767V3.29375H139.751V28.2813ZM112.423 28.2813H87.44V3.29375H112.423V28.2813ZM85.0963 28.2813H60.1129V3.29375H85.0963V28.2813ZM57.7692 28.2813H32.7857V3.29375H57.7692V28.2813ZM5.48204 3.29375H30.4655V28.2813H5.48204V3.29375Z" fill="#8C4AE8"/>
<path d="M113.69 55.5896C113.924 55.5896 114.159 55.6599 114.37 55.8005L152.642 82.4268L208.976 26.968V30.3121L152.642 85.2886C152.407 85.2886 152.173 85.2183 151.962 85.0777L114.135 58.5196L87.3238 111.964C87.2769 112.081 87.1831 112.175 87.1128 112.269L60.1372 139.225L60.3716 166.088L58.0279 166.111L57.7936 138.756C57.7936 138.452 57.9108 138.147 58.1451 137.912L85.3316 110.745L112.635 56.2459C112.799 55.9412 113.057 55.7302 113.385 55.6364C113.502 55.613 113.596 55.5896 113.69 55.5896Z" fill="#20DF78"/>
<path d="M168.25 40.2125C168.531 40.2125 168.789 40.3062 169 40.4938L223.279 83.6242C223.771 84.0461 223.818 84.7962 223.396 85.265C222.974 85.7573 222.224 85.8042 221.756 85.3822L168.414 43.0722L114.533 112.151C114.322 112.409 114.017 112.573 113.689 112.597C113.361 112.62 113.033 112.503 112.799 112.245L86.3152 85.7573L59.8318 112.245L32.8562 139.202V166.088C32.8562 166.744 32.3406 167.26 31.6844 167.26H4.35722C3.701 167.26 3.18539 166.744 3.18539 166.088C3.18539 165.431 3.701 164.916 4.35722 164.916H30.5125V138.709C30.5125 138.405 30.6297 138.1 30.8641 137.889L58.1912 110.604L85.5183 83.2726C85.9871 82.8038 86.7136 82.8038 87.1824 83.2726L113.478 109.667L167.312 40.6578C167.5 40.4 167.804 40.2359 168.109 40.2125H168.25Z" fill="#FFCCE2"/>
<path d="M168.25 38.7337C166.787 38.7337 165.601 39.9196 165.601 41.3825C165.601 42.8454 166.787 44.0312 168.25 44.0312C169.712 44.0312 170.898 42.8454 170.898 41.3825C170.898 39.9196 169.712 38.7337 168.25 38.7337Z" fill="#FFCCE2"/>
<path d="M168.25 37.5635C170.359 37.5635 172.07 39.2746 172.07 41.3843C172.07 43.4939 170.359 45.2051 168.25 45.2051C166.14 45.2051 164.429 43.4939 164.429 41.3843C164.429 39.2746 166.14 37.5635 168.25 37.5635ZM168.25 42.861C169.07 42.861 169.726 42.2047 169.726 41.3843C169.726 40.5639 169.07 39.9075 168.25 39.9075C167.429 39.9075 166.773 40.5639 166.773 41.3843C166.773 42.2047 167.429 42.861 168.25 42.861Z" fill="#FFCCE2"/>
<path d="M222.896 81.4915C221.433 81.4915 220.248 82.6774 220.248 84.1403C220.248 85.6032 221.433 86.7891 222.896 86.7891C224.359 86.7891 225.544 85.6032 225.544 84.1403C225.544 82.6774 224.359 81.4915 222.896 81.4915Z" fill="#FFCCE2"/>
<path d="M222.896 80.3213C225.005 80.3213 226.716 82.0325 226.716 84.1421C226.716 86.2517 225.005 87.9629 222.896 87.9629C220.787 87.9629 219.076 86.2517 219.076 84.1421C219.076 82.0325 220.787 80.3213 222.896 80.3213ZM222.896 85.6188C223.716 85.6188 224.373 84.9625 224.373 84.1421C224.373 83.3217 223.716 82.6653 222.896 82.6653C222.076 82.6653 221.42 83.3217 221.42 84.1421C221.42 84.9625 222.076 85.6188 222.896 85.6188Z" fill="#FFCCE2"/>
<path d="M113.572 108.777C112.109 108.777 110.924 109.963 110.924 111.425C110.924 112.888 112.109 114.074 113.572 114.074C115.035 114.074 116.22 112.888 116.22 111.425C116.22 109.963 115.035 108.777 113.572 108.777Z" fill="#FFCCE2"/>
<path d="M113.572 107.605C115.681 107.605 117.392 109.316 117.392 111.425C117.392 113.535 115.681 115.246 113.572 115.246C111.463 115.246 109.752 113.535 109.752 111.425C109.752 109.316 111.486 107.605 113.572 107.605ZM113.572 112.902C114.392 112.902 115.048 112.246 115.048 111.425C115.048 110.605 114.392 109.949 113.572 109.949C112.752 109.949 112.095 110.605 112.095 111.425C112.095 112.246 112.775 112.902 113.572 112.902Z" fill="#FFCCE2"/>
<path d="M86.2672 81.4915C84.8045 81.4915 83.6188 82.6774 83.6188 84.1403C83.6188 85.6032 84.8045 86.7891 86.2672 86.7891C87.7298 86.7891 88.9155 85.6032 88.9155 84.1403C88.9155 82.6774 87.7298 81.4915 86.2672 81.4915Z" fill="#FFCCE2"/>
<path d="M86.2672 80.3213C88.3765 80.3213 90.0874 82.0325 90.0874 84.1421C90.0874 86.2517 88.3765 87.9629 86.2672 87.9629C84.1579 87.9629 82.4471 86.2517 82.4471 84.1421C82.4471 82.0325 84.1579 80.3213 86.2672 80.3213ZM86.2672 85.6188C87.0875 85.6188 87.7437 84.9625 87.7437 84.1421C87.7437 83.3217 87.0875 82.6653 86.2672 82.6653C85.4469 82.6653 84.7907 83.3217 84.7907 84.1421C84.7907 84.9625 85.4704 85.6188 86.2672 85.6188Z" fill="#FFCCE2"/>
<path d="M58.9176 108.777C57.4549 108.777 56.2692 109.963 56.2692 111.425C56.2692 112.888 57.4549 114.074 58.9176 114.074C60.3802 114.074 61.5659 112.888 61.5659 111.425C61.5659 109.963 60.3802 108.777 58.9176 108.777Z" fill="#FFCCE2"/>
<path d="M58.9176 107.605C61.0269 107.605 62.7378 109.316 62.7378 111.425C62.7378 113.535 61.0269 115.246 58.9176 115.246C56.8083 115.246 55.0975 113.535 55.0975 111.425C55.0975 109.316 56.8083 107.605 58.9176 107.605ZM58.9176 112.902C59.7379 112.902 60.3941 112.246 60.3941 111.425C60.3941 110.605 59.7379 109.949 58.9176 109.949C58.0973 109.949 57.4411 110.605 57.4411 111.425C57.4411 112.246 58.0973 112.902 58.9176 112.902Z" fill="#FFCCE2"/>
<path d="M31.6383 136.105C30.1756 136.105 28.9899 137.291 28.9899 138.754C28.9899 140.216 30.1756 141.402 31.6383 141.402C33.1009 141.402 34.2866 140.216 34.2866 138.754C34.2866 137.291 33.1009 136.105 31.6383 136.105Z" fill="#FFCCE2"/>
<path d="M31.6383 134.933C33.7476 134.933 35.4585 136.644 35.4585 138.753C35.4585 140.863 33.7476 142.574 31.6383 142.574C29.529 142.574 27.8181 140.863 27.8181 138.753C27.8181 136.644 29.529 134.933 31.6383 134.933ZM31.6383 140.23C32.4586 140.23 33.1148 139.574 33.1148 138.753C33.1148 137.933 32.4586 137.277 31.6383 137.277C30.818 137.277 30.1618 137.933 30.1618 138.753C30.1618 139.574 30.818 140.23 31.6383 140.23Z" fill="#FFCCE2"/>
<path d="M4.63828 163.107C3.17564 163.107 1.98993 164.293 1.98993 165.756C1.98993 167.218 3.17564 168.404 4.63828 168.404C6.10092 168.404 7.28662 167.218 7.28662 165.756C7.28662 164.293 6.10092 163.107 4.63828 163.107Z" fill="#FFCCE2"/>
<path d="M4.63832 161.935C6.74762 161.935 8.4585 163.646 8.4585 165.755C8.4585 167.865 6.74762 169.576 4.63832 169.576C2.52903 169.576 0.818139 167.865 0.818139 165.755C0.818139 163.646 2.52903 161.935 4.63832 161.935ZM4.63832 167.232C5.45861 167.232 6.11483 166.576 6.11483 165.755C6.11483 164.935 5.45861 164.279 4.63832 164.279C3.81804 164.279 3.1618 164.935 3.1618 165.755C3.1618 166.576 3.81804 167.232 4.63832 167.232Z" fill="#FFCCE2"/>
<path d="M58.9176 136.105C57.4549 136.105 56.2692 137.291 56.2692 138.754C56.2692 140.216 57.4549 141.402 58.9176 141.402C60.3802 141.402 61.5659 140.216 61.5659 138.754C61.5659 137.291 60.3802 136.105 58.9176 136.105Z" fill="#20DF78"/>
<path d="M58.9176 134.933C61.0269 134.933 62.7378 136.644 62.7378 138.753C62.7378 140.863 61.0269 142.574 58.9176 142.574C56.8083 142.574 55.0975 140.863 55.0975 138.753C55.0975 136.644 56.8083 134.933 58.9176 134.933ZM58.9176 140.23C59.7379 140.23 60.3941 139.574 60.3941 138.753C60.3941 137.933 59.7379 137.277 58.9176 137.277C58.0973 137.277 57.4411 137.933 57.4411 138.753C57.4411 139.574 58.0973 140.23 58.9176 140.23Z" fill="#20DF78"/>
<path d="M59.5035 163.462C58.0409 163.462 56.8552 164.648 56.8552 166.111C56.8552 167.574 58.0409 168.76 59.5035 168.76C60.9662 168.76 62.1519 167.574 62.1519 166.111C62.1519 164.648 60.9662 163.462 59.5035 163.462Z" fill="#20DF78"/>
<path d="M59.5036 162.292C61.6129 162.292 63.3237 164.003 63.3237 166.113C63.3237 168.222 61.6129 169.934 59.5036 169.934C57.3943 169.934 55.6834 168.222 55.6834 166.113C55.6834 164.003 57.3943 162.292 59.5036 162.292ZM59.5036 167.59C60.3238 167.59 60.9801 166.933 60.9801 166.113C60.9801 165.292 60.3238 164.636 59.5036 164.636C58.6833 164.636 58.0271 165.292 58.0271 166.113C58.0271 166.933 58.6833 167.59 59.5036 167.59Z" fill="#20DF78"/>
<path d="M113.572 54.1849C112.109 54.1849 110.924 55.3708 110.924 56.8336C110.924 58.2965 112.109 59.4824 113.572 59.4824C115.035 59.4824 116.22 58.2965 116.22 56.8336C116.22 55.3708 115.035 54.1849 113.572 54.1849Z" fill="#20DF78"/>
<path d="M113.572 53.0127C115.681 53.0127 117.392 54.7239 117.392 56.8335C117.392 58.9431 115.681 60.6543 113.572 60.6543C111.463 60.6543 109.752 58.9431 109.752 56.8335C109.752 54.7239 111.486 53.0127 113.572 53.0127ZM113.572 58.3103C114.392 58.3103 115.048 57.6539 115.048 56.8335C115.048 56.0131 114.392 55.3568 113.572 55.3568C112.752 55.3568 112.095 56.0131 112.095 56.8335C112.095 57.6539 112.775 58.3103 113.572 58.3103Z" fill="#20DF78"/>
<path d="M86.2691 108.779C84.8065 108.779 83.6208 109.965 83.6208 111.427C83.6208 112.89 84.8065 114.076 86.2691 114.076C87.7318 114.076 88.9175 112.89 88.9175 111.427C88.9175 109.965 87.7318 108.779 86.2691 108.779Z" fill="#20DF78"/>
<path d="M86.2692 107.606C88.3785 107.606 90.0894 109.318 90.0894 111.427C90.0894 113.537 88.3785 115.248 86.2692 115.248C84.1599 115.248 82.449 113.537 82.449 111.427C82.449 109.318 84.1599 107.606 86.2692 107.606ZM86.2692 112.904C87.0895 112.904 87.7457 112.248 87.7457 111.427C87.7457 110.607 87.0895 109.951 86.2692 109.951C85.4489 109.951 84.7927 110.607 84.7927 111.427C84.7927 112.248 85.4723 112.904 86.2692 112.904Z" fill="#20DF78"/>
<path d="M152.642 81.4915C151.18 81.4915 149.994 82.6774 149.994 84.1403C149.994 85.6032 151.18 86.7891 152.642 86.7891C154.105 86.7891 155.291 85.6032 155.291 84.1403C155.291 82.6774 154.105 81.4915 152.642 81.4915Z" fill="#20DF78"/>
<path d="M152.642 80.3213C154.752 80.3213 156.462 82.0325 156.462 84.1421C156.462 86.2517 154.752 87.9629 152.642 87.9629C150.533 87.9629 148.822 86.2517 148.822 84.1421C148.822 82.0325 150.533 80.3213 152.642 80.3213ZM152.642 85.6188C153.463 85.6188 154.119 84.9625 154.119 84.1421C154.119 83.3217 153.463 82.6653 152.642 82.6653C151.822 82.6653 151.166 83.3217 151.166 84.1421C151.166 84.9625 151.822 85.6188 152.642 85.6188Z" fill="#20DF78"/>
<path d="M208.724 26.097C207.262 26.097 206.076 27.2829 206.076 28.7458C206.076 30.2086 207.262 31.3945 208.724 31.3945C210.187 31.3945 211.373 30.2086 211.373 28.7458C211.373 27.2829 210.187 26.097 208.724 26.097Z" fill="#20DF78"/>
<path d="M208.724 24.9268C210.834 24.9268 212.544 26.6379 212.544 28.7476C212.544 30.8572 210.834 32.5684 208.724 32.5684C206.615 32.5684 204.904 30.8572 204.904 28.7476C204.904 26.6379 206.615 24.9268 208.724 24.9268ZM208.724 30.2243C209.545 30.2243 210.201 29.568 210.201 28.7476C210.201 27.9271 209.545 27.2708 208.724 27.2708C207.904 27.2708 207.248 27.9271 207.248 28.7476C207.248 29.568 207.904 30.2243 208.724 30.2243Z" fill="#20DF78"/>
<path d="M226.898 84.8138C226.898 81.056 223.853 78.01 220.096 78.01C216.338 78.01 213.293 81.056 213.293 84.8138C213.293 88.5716 216.338 91.6176 220.096 91.6176C223.853 91.6176 226.898 88.5716 226.898 84.8138Z" fill="white" stroke="#FFCCE2" stroke-width="0.555556"/>
<path d="M227.459 84.8147C227.459 80.7547 224.156 77.4512 220.097 77.4512C216.037 77.4512 212.734 80.7547 212.734 84.8147C212.734 88.8747 216.037 92.1782 220.097 92.1782C224.156 92.1782 227.459 88.8747 227.459 84.8147ZM225.784 84.8147C225.784 87.9523 223.234 90.5032 220.097 90.5032C216.96 90.5032 214.409 87.9523 214.409 84.8147C214.409 81.6771 216.96 79.1261 220.097 79.1261C223.234 79.1261 225.784 81.6771 225.784 84.8147Z" fill="#FFCCE2" stroke="#FFCCE2" stroke-width="0.555556"/>
<path d="M215.75 28.8138C215.75 25.056 212.705 22.01 208.947 22.01C205.19 22.01 202.144 25.056 202.144 28.8138C202.144 32.5716 205.19 35.6176 208.947 35.6176C212.705 35.6176 215.75 32.5716 215.75 28.8138Z" fill="white" stroke="#20DF78" stroke-width="0.555556"/>
<path d="M216.31 28.8147C216.31 24.7547 213.008 21.4512 208.948 21.4512C204.889 21.4512 201.586 24.7547 201.586 28.8147C201.586 32.8747 204.889 36.1782 208.948 36.1782C213.008 36.1782 216.31 32.8747 216.31 28.8147ZM214.636 28.8147C214.636 31.9523 212.085 34.5032 208.948 34.5032C205.811 34.5032 203.261 31.9523 203.261 28.8147C203.261 25.6771 205.811 23.1261 208.948 23.1261C212.085 23.1261 214.636 25.6771 214.636 28.8147Z" fill="#20DF78" stroke="#20DF78" stroke-width="0.555556"/>
<rect x="21.3179" y="17.4277" width="50" height="51" fill="#FFD766" stroke="#1600E5" stroke-width="3"/>
<path d="M31.3313 52.9277H36.0727L37.4317 48.9715H46.3407L47.6997 52.9277H52.4411L44.8005 31.7877H38.9719L31.3313 52.9277ZM38.5793 45.6193L41.7503 36.4083H42.0221L45.1931 45.6193H38.5793ZM54.2349 52.9277H58.7649V31.7877H54.2349V52.9277Z" fill="#1600E5"/>
</svg>
