<svg width="224" height="174" viewBox="0 0 224 174" fill="none" xmlns="http://www.w3.org/2000/svg">
<mask id="mask0_5051_79509" style="mask-type:luminance" maskUnits="userSpaceOnUse" x="0" y="76" width="191" height="98">
<path d="M190.153 76.7905H0.371094V173.928H190.153V76.7905Z" fill="white"/>
</mask>
<g mask="url(#mask0_5051_79509)">
<path d="M189.435 89.4774L180.585 153.615L179.408 162.149H52.7764L53.9532 153.615L63.2208 86.4497C63.9341 81.2762 68.1444 77.4395 73.1091 77.4395H179.549C185.639 77.4395 190.313 83.1297 189.435 89.4802V89.4774Z" fill="#B3F4FF"/>
<path d="M179.408 162.794H52.7762C52.5986 162.794 52.4286 162.712 52.3127 162.569C52.1968 162.428 52.1453 162.239 52.1685 162.052L62.6156 86.3527C62.9812 83.6984 64.2456 81.2686 66.1717 79.5125C68.0979 77.7565 70.5622 76.7905 73.1089 76.7905H179.549C182.629 76.7905 185.552 78.1975 187.568 80.6517C189.584 83.1058 190.486 86.3554 190.043 89.5672L181.192 153.705L180.015 162.239C179.972 162.555 179.714 162.791 179.408 162.791V162.794ZM53.4844 161.503H178.877L188.83 89.3859C189.221 86.5448 188.423 83.6713 186.641 81.5013C184.859 79.3313 182.274 78.0866 179.549 78.0866H73.1089C68.4841 78.0866 64.4928 81.7232 63.8284 86.5448L53.4844 161.506V161.503Z" fill="#1600E5"/>
<path d="M11.552 173.28H168.806C174.644 173.28 179.374 168.296 179.374 162.146H0.983887C0.983887 168.296 5.71686 173.28 11.552 173.28Z" fill="#1600E5"/>
<path d="M168.806 173.928H11.552C5.38732 173.928 0.371094 168.643 0.371094 162.147C0.371094 161.79 0.646626 161.5 0.983959 161.5H179.377C179.714 161.5 179.99 161.79 179.99 162.147C179.99 168.643 174.973 173.928 168.806 173.928ZM1.61485 162.793C1.93158 168.278 6.26799 172.637 11.552 172.637H168.806C174.09 172.637 178.427 168.278 178.743 162.793H1.61485Z" fill="#1600E5"/>
<path d="M180.585 153.612L179.408 162.146H52.7764L53.9532 153.612H180.585Z" fill="#F6E258"/>
<path d="M179.408 162.794H52.7762C52.5986 162.794 52.4286 162.713 52.3127 162.569C52.1968 162.428 52.1453 162.239 52.1685 162.052L53.3453 153.518C53.3891 153.202 53.6466 152.966 53.953 152.966H180.584C180.762 152.966 180.932 153.047 181.048 153.191C181.164 153.332 181.215 153.521 181.192 153.708L180.015 162.242C179.972 162.558 179.714 162.794 179.408 162.794ZM53.4844 161.503H178.877L179.876 154.262H54.4835L53.4844 161.503Z" fill="#1600E5"/>
<path d="M161.892 77.4365H89.0356C91.5463 77.4365 92.5377 78.9545 93.0115 80.1694C93.7351 83.3946 96.4853 85.865 99.8483 85.865H151.053C154.259 85.865 157.017 83.5868 157.834 80.3966C158.271 79.152 159.224 77.4365 161.895 77.4365H161.892Z" fill="#1600E5"/>
<path d="M151.054 86.5121H99.8484C96.3077 86.5121 93.264 83.9904 92.4271 80.37C91.8039 78.8088 90.725 78.081 89.0357 78.081C88.6984 78.081 88.4229 77.7914 88.4229 77.4343C88.4229 77.0771 88.6984 76.7876 89.0357 76.7876H161.892C162.229 76.7876 162.505 77.0771 162.505 77.4343C162.505 77.7914 162.229 78.081 161.892 78.081C159.587 78.081 158.802 79.5069 158.416 80.5946C157.509 84.0797 154.486 86.5121 151.051 86.5121H151.054ZM92.4297 78.0837C92.9035 78.5653 93.2871 79.1795 93.5781 79.9263C93.591 79.9588 93.6013 79.9885 93.6065 80.0237C94.294 83.0839 96.8588 85.2215 99.8458 85.2215H151.051C153.943 85.2215 156.487 83.1705 157.239 80.232C157.244 80.2131 157.249 80.1942 157.257 80.1752C157.558 79.3148 157.975 78.6167 158.501 78.0837H92.4297Z" fill="#1600E5"/>
</g>
<mask id="mask1_5051_79509" style="mask-type:luminance" maskUnits="userSpaceOnUse" x="99" y="31" width="125" height="134">
<path d="M223.629 31.707H99.5703V164.999H223.629V31.707Z" fill="white"/>
</mask>
<g mask="url(#mask1_5051_79509)">
<path d="M203.752 149.555H181.024L179.409 125.275L187.484 123.936L203.752 149.555Z" fill="white"/>
<path d="M203.752 150.797H181.025C180.396 150.797 179.879 150.287 179.837 149.632L178.222 125.352C178.18 124.709 178.613 124.139 179.22 124.036L187.295 122.721C187.753 122.639 188.214 122.853 188.457 123.267L204.724 148.889C204.965 149.268 204.984 149.758 204.772 150.154C204.585 150.563 204.182 150.815 203.752 150.8V150.797ZM182.142 148.314H201.545L186.915 125.299L180.67 126.318L182.142 148.314Z" fill="#1600E5"/>
<path d="M222.419 40.1709V130.067C222.419 140.844 214.062 149.579 203.754 149.579C193.447 149.579 185.09 140.842 185.09 130.067V128.528C185.09 127.348 184.176 126.394 183.047 126.394C181.918 126.394 181.005 127.351 181.005 128.528V163.78H107.857V150.398L164.377 128.502C164.382 117.724 172.742 108.992 183.053 108.998C193.355 109.004 201.703 117.733 201.709 128.502V130.04C201.709 131.22 202.623 132.175 203.751 132.175C204.88 132.175 205.794 131.218 205.794 130.04V40.1709H222.416H222.419Z" fill="white"/>
<path d="M181.024 164.999H107.883C107.235 165.005 106.701 164.462 106.695 163.783C106.695 163.775 106.695 163.766 106.695 163.76V150.378C106.695 149.855 107.008 149.385 107.478 149.212L163.237 127.612C163.692 116.162 172.941 107.263 183.894 107.739C194.531 108.2 202.925 117.351 202.919 128.482V130.02C202.919 130.513 203.302 130.912 203.774 130.912C204.246 130.912 204.629 130.513 204.629 130.02V40.1477C204.623 39.4695 205.143 38.9146 205.794 38.9058C205.803 38.9058 205.811 38.9058 205.817 38.9058H222.439C223.087 38.8999 223.621 39.4431 223.626 40.1213C223.626 40.1301 223.626 40.1389 223.626 40.1448V130.02C223.632 141.482 214.749 150.78 203.785 150.786C192.821 150.792 183.927 141.505 183.919 130.043V128.505C183.919 128.012 183.536 127.612 183.064 127.612C182.592 127.612 182.209 128.012 182.209 128.505V163.783C182.206 164.459 181.678 165.005 181.03 164.999C181.027 164.999 181.024 164.999 181.022 164.999H181.024ZM109.068 162.515H179.837V128.502C179.837 126.638 181.284 125.126 183.067 125.126C184.85 125.126 186.297 126.638 186.297 128.502V130.04C186.297 140.131 194.123 148.314 203.774 148.314C213.425 148.314 221.251 140.134 221.251 130.04V41.4131H207.001V130.043C207.001 131.908 205.554 133.42 203.771 133.42C201.989 133.42 200.541 131.908 200.541 130.043V128.505C200.541 118.414 192.715 110.232 183.064 110.232C173.413 110.232 165.587 118.411 165.587 128.505C165.587 129.028 165.274 129.497 164.805 129.671L109.068 151.27V162.518V162.515Z" fill="#1600E5"/>
<path d="M183.067 124.137H172.905L171.385 124.856L175.897 113.186H192.994L203.752 140.869H188.244" fill="#1600E5"/>
<path d="M203.752 142.11H188.219C187.563 142.11 187.032 141.555 187.032 140.868C187.032 140.181 187.563 139.626 188.219 139.626H201.969L192.162 114.427H176.679L173.402 122.892H183.044C183.701 122.892 184.232 123.446 184.232 124.133C184.232 124.82 183.701 125.375 183.044 125.375H173.142L171.837 125.995C171.228 126.268 170.521 125.974 170.261 125.337C170.136 125.032 170.13 124.688 170.247 124.38L174.76 112.713C174.942 112.249 175.372 111.943 175.852 111.943H192.95C193.43 111.938 193.866 112.246 194.042 112.713L204.825 140.393C204.964 140.78 204.92 141.212 204.707 141.558C204.506 141.902 204.143 142.11 203.757 142.104L203.752 142.11Z" fill="#1600E5"/>
<path d="M142.15 117.73V32.9487H214.106V130.043C214.109 136.018 209.479 140.865 203.765 140.868H203.754C198.04 140.871 193.405 136.033 193.399 130.058V128.505C193.402 122.53 188.772 117.683 183.058 117.68H183.047C177.333 117.677 172.698 122.516 172.692 128.49V156.558H100.732V128.505C100.73 122.53 105.359 117.683 111.073 117.68H111.085L142.147 117.73H142.15Z" fill="white"/>
<path d="M172.715 157.8H100.758C100.11 157.806 99.5759 157.263 99.5703 156.585C99.5703 156.576 99.5703 156.567 99.5703 156.561V128.508C99.5759 121.846 104.739 116.45 111.113 116.441L140.965 116.491V32.949C140.96 32.2708 141.479 31.7159 142.13 31.7071C142.139 31.7071 142.147 31.7071 142.153 31.7071H214.11C214.758 31.7012 215.291 32.2444 215.297 32.9226C215.297 32.9314 215.297 32.9402 215.297 32.946V130.044C215.297 136.708 210.131 142.11 203.755 142.11C197.378 142.11 192.212 136.708 192.212 130.044V128.505C192.212 123.212 188.107 118.922 183.045 118.922C177.982 118.922 173.877 123.212 173.877 128.505V156.558C173.894 157.225 173.391 157.78 172.754 157.8C172.74 157.8 172.726 157.8 172.715 157.8ZM101.945 155.316H171.527V128.505C171.527 121.841 176.694 116.438 183.07 116.438C189.446 116.438 194.612 121.841 194.612 128.505V130.044C194.612 135.337 198.717 139.627 203.78 139.627C208.843 139.627 212.947 135.337 212.947 130.044V34.1909H143.365V117.73C143.368 118.059 143.24 118.376 143.01 118.599C142.79 118.831 142.491 118.963 142.181 118.972L111.144 118.922C106.083 118.925 101.979 123.215 101.976 128.505L101.954 155.316H101.945Z" fill="#1600E5"/>
<path d="M183.067 118.972H142.15C141.493 118.972 140.962 118.417 140.962 117.73C140.962 117.043 141.493 116.488 142.15 116.488H183.067C183.715 116.482 184.249 117.025 184.254 117.703C184.254 117.712 184.254 117.721 184.254 117.727C184.254 118.411 183.721 118.966 183.067 118.969V118.972Z" fill="#1600E5"/>
<path d="M200.309 57.0791H154.975V80.7135H200.309V57.0791Z" fill="#D4BBF6"/>
<path d="M200.309 81.9556H154.975C154.326 81.9615 153.793 81.4183 153.787 80.7401C153.787 80.7313 153.787 80.7225 153.787 80.7166V57.0823C153.782 56.4041 154.301 55.8492 154.952 55.8404C154.961 55.8404 154.969 55.8404 154.975 55.8404H200.309C200.957 55.8345 201.491 56.3777 201.497 57.0559C201.497 57.0647 201.497 57.0735 201.497 57.0793V80.7137C201.502 81.3919 200.983 81.9468 200.332 81.9556C200.323 81.9556 200.315 81.9556 200.309 81.9556ZM156.162 79.4718H199.122V58.3213H156.162V79.4718Z" fill="#1600E5"/>
<path d="M200.309 93.9462H154.975C154.318 93.9462 153.787 93.3913 153.787 92.7043C153.787 92.0173 154.318 91.4624 154.975 91.4624H200.309C200.966 91.4624 201.497 92.0173 201.497 92.7043C201.497 93.3913 200.966 93.9462 200.309 93.9462Z" fill="#1600E5"/>
<path d="M200.309 104.744H154.975C154.318 104.744 153.787 104.189 153.787 103.502C153.787 102.815 154.318 102.26 154.975 102.26H200.309C200.966 102.26 201.497 102.815 201.497 103.502C201.497 104.189 200.966 104.744 200.309 104.744Z" fill="#1600E5"/>
</g>
<mask id="mask2_5051_79509" style="mask-type:luminance" maskUnits="userSpaceOnUse" x="40" y="28" width="63" height="107">
<path d="M84.4176 28.4986L40.1772 37.5767L58.22 134.658L102.46 125.58L84.4176 28.4986Z" fill="white"/>
</mask>
<g mask="url(#mask2_5051_79509)">
<path d="M46.4723 71.4459C47.8072 78.629 50.9401 85.2208 55.5373 90.3706C60.0823 95.4629 65.7006 98.8334 71.7996 100.181C74.2327 100.712 76.6882 100.903 79.1014 100.744C77.8413 105.258 77.7765 109.751 78.947 113.519C80.7376 119.354 86.2314 126.2 102.13 125.648L102.063 123.444C90.5049 123.845 83.2031 120.171 80.9418 112.841C80.0129 109.806 80.1225 104.97 81.3901 100.498C84.5753 100 87.6733 98.9171 90.6419 97.2554C92.8533 96.0177 94.1633 94.0682 94.1533 92.0558C94.1483 90.5329 93.3888 89.2114 92.1237 88.5075C90.4053 87.5602 88.0942 87.9239 85.8055 89.5568C83.5343 91.1661 81.2905 94.5366 79.8361 98.4644C77.3108 98.713 74.7557 98.5665 72.2329 98.0091C66.5623 96.7766 61.3225 93.5971 57.0764 88.845C51.7445 82.863 48.497 74.8399 47.9392 66.1966C47.3016 56.3156 50.1282 45.8143 56.1276 35.8051L54.3494 34.6484C48.0985 45.0476 45.1673 56.0172 45.8472 66.3589C45.9568 68.1043 46.1635 69.7869 46.4723 71.4485V71.4459ZM92.0265 91.6816C92.0514 91.8099 92.0539 91.9459 92.0539 92.0558C92.0589 93.2413 91.1499 94.4581 89.6382 95.3059C87.2325 96.651 84.7297 97.5904 82.1696 98.1164C83.2554 95.319 84.8592 92.8828 86.9785 91.3729C88.5873 90.2372 90.1313 89.897 91.135 90.4518C91.6106 90.7134 91.9319 91.1609 92.0265 91.679V91.6816Z" fill="#1600E5"/>
</g>
<mask id="mask3_5051_79509" style="mask-type:luminance" maskUnits="userSpaceOnUse" x="25" y="0" width="54" height="53">
<path d="M78.6735 0.927734H25V52.4194H78.6735V0.927734Z" fill="white"/>
</mask>
<g mask="url(#mask3_5051_79509)">
<path d="M51.8365 51.3595C66.0422 51.3595 77.5582 40.3072 77.5582 26.6734C77.5582 13.0396 66.0422 1.9873 51.8365 1.9873C37.6308 1.9873 26.1147 13.0396 26.1147 26.6734C26.1147 40.3072 37.6308 51.3595 51.8365 51.3595Z" fill="#90EFBC"/>
<path d="M51.8366 52.4194C37.0227 52.4194 25.0103 40.8919 25.0103 26.6736C25.0103 12.4552 37.0227 0.927734 51.8366 0.927734C66.6505 0.927734 78.663 12.4552 78.663 26.6736C78.663 40.8919 66.6194 52.4194 51.8366 52.4194ZM51.8366 3.0472C38.2416 3.0472 27.2195 13.6246 27.2195 26.6736C27.2195 39.7225 38.2416 50.2999 51.8366 50.2999C65.4316 50.2999 76.4537 39.7225 76.4537 26.6736C76.433 13.6345 65.4247 3.06713 51.8366 3.0472Z" fill="#1600E5"/>
<path d="M77.5582 26.6737C77.5582 26.6737 66.0444 38.6331 51.8365 38.6331C37.6286 38.6331 26.1147 26.6737 26.1147 26.6737C26.1147 26.6737 37.6286 14.7144 51.8365 14.7144C66.0444 14.7144 77.5582 26.6737 77.5582 26.6737Z" fill="#F3F6E6"/>
<path d="M51.8367 39.6962C37.3206 39.6962 25.7859 27.9063 25.2977 27.3947C24.8995 26.9894 24.8995 26.3582 25.2977 25.9529C25.7825 25.4446 37.3171 13.6514 51.8367 13.6514C66.3562 13.6514 77.8874 25.4413 78.3756 25.9529C78.7738 26.3582 78.7738 26.9894 78.3756 27.3947C77.8908 27.9029 66.3562 39.6962 51.8367 39.6962ZM27.6628 26.6738C30.4019 29.2185 40.2813 37.5734 51.8367 37.5734C63.392 37.5734 73.2714 29.2185 76.0105 26.6738C73.2714 24.1291 63.392 15.7742 51.8367 15.7742C40.2813 15.7742 30.3811 24.1291 27.6628 26.6738Z" fill="#1600E5"/>
<path d="M51.8364 17.5547C46.5903 17.5547 42.3345 21.6375 42.3345 26.6737C42.3345 31.7099 46.5868 35.7927 51.8364 35.7927C57.086 35.7927 61.3384 31.7099 61.3384 26.6737C61.3314 21.6408 57.0826 17.5613 51.8364 17.5547Z" fill="#1600E5"/>
</g>
<path d="M158.282 8.37867L158.28 8.37616L157.054 5.88134H157.051L156.781 5.3285C156.505 4.7623 155.743 4.78967 155.494 5.31746L155.491 5.32396L155.487 5.33042L153.994 8.37321C153.993 8.37369 153.993 8.37416 153.993 8.37464C153.605 9.16902 152.838 9.72986 151.959 9.85928C151.959 9.85932 151.959 9.85935 151.958 9.85938L148.621 10.3521L148.619 10.3525C148.024 10.4388 147.763 11.1859 148.211 11.6302C148.211 11.6305 148.212 11.6307 148.212 11.631L150.619 13.994C151.267 14.6186 151.543 15.5187 151.403 16.3861L151.402 16.394L151.402 16.394L150.832 19.7482L150.832 19.7511C150.725 20.3694 151.364 20.8177 151.895 20.5375L154.874 18.9603C154.874 18.9601 154.875 18.9599 154.875 18.9597C155.663 18.5405 156.61 18.5397 157.398 18.9598C157.398 18.9602 157.399 18.9605 157.4 18.9608L160.378 20.5377C160.907 20.8173 161.548 20.3694 161.441 19.7511L161.44 19.7482L160.87 16.394L160.87 16.3912C160.725 15.52 161.013 14.6235 161.65 13.9977L161.65 13.9973L164.06 11.631C164.061 11.6308 164.061 11.6305 164.061 11.6303C164.51 11.186 164.249 10.4388 163.654 10.3525L163.652 10.3521L160.315 9.85944L158.282 8.37867ZM158.282 8.37867C158.678 9.17869 159.431 9.72963 160.313 9.85928L158.282 8.37867Z" fill="#FFBD00" stroke="#1600E5" stroke-width="1.97"/>
<path d="M180.786 8.37867L180.785 8.37616L179.559 5.88134H179.555L179.286 5.3285C179.009 4.7623 178.248 4.78967 177.998 5.31746L177.995 5.32396L177.992 5.33042L176.498 8.37321C176.498 8.37369 176.497 8.37416 176.497 8.37464C176.11 9.16902 175.343 9.72986 174.463 9.85928C174.463 9.85932 174.463 9.85935 174.463 9.85938L171.125 10.3521L171.123 10.3525C170.528 10.4388 170.267 11.1859 170.716 11.6302C170.716 11.6305 170.716 11.6307 170.716 11.631L173.124 13.994C173.771 14.6186 174.048 15.5187 173.908 16.3861L173.906 16.394L173.906 16.394L173.337 19.7482L173.336 19.7511C173.229 20.3694 173.868 20.8177 174.399 20.5375L177.378 18.9603C177.379 18.9601 177.379 18.9599 177.38 18.9597C178.168 18.5405 179.114 18.5397 179.902 18.9598C179.903 18.9602 179.903 18.9605 179.904 18.9608L182.883 20.5377C183.412 20.8173 184.052 20.3694 183.945 19.7511L183.945 19.7482L183.375 16.394L183.374 16.3912C183.229 15.52 183.517 14.6235 184.154 13.9977L184.154 13.9973L186.565 11.631C186.565 11.6308 186.565 11.6305 186.566 11.6303C187.014 11.186 186.753 10.4388 186.158 10.3525L186.156 10.3521L182.819 9.85944L180.786 8.37867ZM180.786 8.37867C181.182 9.17869 181.935 9.72963 182.818 9.85928L180.786 8.37867Z" fill="#FFBD00" stroke="#1600E5" stroke-width="1.97"/>
<path d="M203.291 8.37867L203.29 8.37616L202.064 5.88134H202.061L201.791 5.3285C201.514 4.7623 200.753 4.78967 200.503 5.31746L200.5 5.32396L200.497 5.33042L199.003 8.37321C199.003 8.37369 199.003 8.37416 199.003 8.37464C198.615 9.16902 197.848 9.72986 196.969 9.85928C196.969 9.85932 196.968 9.85935 196.968 9.85938L193.631 10.3521L193.628 10.3525C193.034 10.4388 192.772 11.1859 193.221 11.6302C193.221 11.6305 193.221 11.6307 193.222 11.631L195.629 13.994C196.277 14.6186 196.553 15.5187 196.413 16.3861L196.412 16.394L196.412 16.394L195.842 19.7482L195.842 19.7511C195.735 20.3694 196.374 20.8177 196.905 20.5375L199.884 18.9603C199.884 18.9601 199.885 18.9599 199.885 18.9597C200.673 18.5405 201.619 18.5397 202.407 18.9598C202.408 18.9602 202.409 18.9605 202.409 18.9608L205.388 20.5377C205.917 20.8173 206.557 20.3694 206.45 19.7511L206.45 19.7482L205.88 16.394L205.88 16.3912C205.734 15.52 206.022 14.6235 206.659 13.9977L206.66 13.9973L209.07 11.631C209.07 11.6308 209.071 11.6305 209.071 11.6303C209.52 11.186 209.258 10.4388 208.664 10.3525L208.661 10.3521L205.324 9.85944L203.291 8.37867ZM203.291 8.37867C203.687 9.17869 204.441 9.72963 205.323 9.85928L203.291 8.37867Z" fill="#FFBD00" stroke="#1600E5" stroke-width="1.97"/>
</svg>
