<svg width="218" height="170" viewBox="0 0 218 170" fill="none" xmlns="http://www.w3.org/2000/svg">
<g clip-path="url(#clip0_5051_79575)">
<mask id="mask0_5051_79575" style="mask-type:luminance" maskUnits="userSpaceOnUse" x="0" y="35" width="218" height="135">
<path d="M218 35.0215H0V169.334H218V35.0215Z" fill="white"/>
</mask>
<g mask="url(#mask0_5051_79575)">
<path d="M216.433 36.5957H1.5625V167.765H216.433V36.5957Z" fill="#F3F6E6"/>
<path d="M216.438 169.334H1.56241C0.686723 169.334 0 168.642 0 167.76V36.5954C0 35.7138 0.686723 35.0215 1.56241 35.0215H216.438C217.313 35.0215 218 35.7138 218 36.5954V167.76C218 168.642 217.313 169.334 216.438 169.334ZM3.12943 166.191H214.871V38.1647H3.12943V166.191Z" fill="#1600E5"/>
<path d="M216.433 36.5957H1.5625V83.379H216.433V36.5957Z" fill="#BAB3FF"/>
<path d="M216.438 84.948H1.56241C0.686723 84.948 0 84.2557 0 83.3741V36.5954C0 35.7138 0.686723 35.0215 1.56241 35.0215H216.438C217.313 35.0215 218 35.7138 218 36.5954V83.3787C218 84.2603 217.313 84.9526 216.438 84.9526V84.948ZM3.12943 81.8048H214.871V38.1647H3.12943V81.8048Z" fill="#1600E5"/>
<path d="M188.693 57.1036L190.906 54.8789L198.206 62.2176L195.994 64.4423L188.693 57.1036Z" fill="#1600E5"/>
<path d="M188.703 62.2033L196.004 54.8691L198.216 57.0938L190.915 64.428L188.703 62.2033Z" fill="#1600E5"/>
<path d="M183.586 65.2678H172.479V54.1074H183.586V65.2678ZM175.608 62.1247H180.456V57.2506H175.608V62.1247Z" fill="#1600E5"/>
<path d="M166.161 62.0918H158.215V65.235H166.161V62.0918Z" fill="#1600E5"/>
</g>
<path d="M28.3535 135.818C35.8374 135.818 41.9043 129.751 41.9043 122.268C41.9043 114.784 35.8374 108.717 28.3535 108.717C20.8696 108.717 14.8027 114.784 14.8027 122.268C14.8027 129.751 20.8696 135.818 28.3535 135.818Z" fill="#FFCA33"/>
<path d="M28.354 136.155C20.6953 136.155 14.4648 129.925 14.4648 122.266C14.4648 114.607 20.6953 108.377 28.354 108.377C36.0127 108.377 42.2431 114.607 42.2431 122.266C42.2431 129.925 36.0127 136.155 28.354 136.155ZM28.354 109.054C21.067 109.054 15.1416 114.979 15.1416 122.266C15.1416 129.553 21.067 135.478 28.354 135.478C35.641 135.478 41.5664 129.553 41.5664 122.266C41.5664 114.979 35.641 109.054 28.354 109.054Z" fill="#1600E5"/>
<mask id="mask1_5051_79575" style="mask-type:alpha" maskUnits="userSpaceOnUse" x="14" y="108" width="29" height="29">
<path d="M28.3535 135.818C35.8374 135.818 41.9043 129.751 41.9043 122.268C41.9043 114.784 35.8374 108.717 28.3535 108.717C20.8696 108.717 14.8027 114.784 14.8027 122.268C14.8027 129.751 20.8696 135.818 28.3535 135.818Z" fill="#FFCA33"/>
<path d="M28.354 136.155C20.6953 136.155 14.4648 129.925 14.4648 122.266C14.4648 114.607 20.6953 108.377 28.354 108.377C36.0127 108.377 42.2431 114.607 42.2431 122.266C42.2431 129.925 36.0127 136.155 28.354 136.155ZM28.354 109.054C21.067 109.054 15.1416 114.979 15.1416 122.266C15.1416 129.553 21.067 135.478 28.354 135.478C35.641 135.478 41.5664 129.553 41.5664 122.266C41.5664 114.979 35.641 109.054 28.354 109.054Z" fill="#1600E5"/>
</mask>
<g mask="url(#mask1_5051_79575)">
<path d="M18.2969 135.469V134.126C18.2969 130.307 21.3849 127.219 25.2041 127.219H31.3098C35.129 127.219 38.217 130.307 38.217 134.126V135.469H18.2969Z" fill="#1600E5"/>
<path d="M38.216 135.967H18.2959C18.0147 135.967 17.7949 135.747 17.7949 135.466V134.123C17.7949 130.042 21.1237 126.715 25.2031 126.715H31.3088C35.3897 126.715 38.717 130.044 38.717 134.123V135.466C38.717 135.737 38.4972 135.967 38.216 135.967ZM18.7968 134.965H37.7151V134.123C37.7151 130.594 34.8379 127.717 31.3088 127.717H25.2031C21.674 127.717 18.7968 130.594 18.7968 134.123V134.965Z" fill="#1600E5"/>
<path d="M28.2502 127.224C25.4224 127.224 23.127 124.928 23.127 122.101V119.002C23.127 116.174 25.4224 113.879 28.2502 113.879C31.078 113.879 33.3734 116.174 33.3734 119.002V122.101C33.3734 124.928 31.078 127.224 28.2502 127.224Z" fill="#F3F6E6"/>
<path d="M28.2511 127.722C25.1527 127.722 22.627 125.196 22.627 122.098V118.999C22.627 115.901 25.1527 113.375 28.2511 113.375C31.3496 113.375 33.8753 115.901 33.8753 118.999V122.098C33.8753 125.196 31.3496 127.722 28.2511 127.722ZM28.2511 114.378C25.7045 114.378 23.6289 116.454 23.6289 119.001V122.099C23.6289 124.646 25.7045 126.721 28.2511 126.721C30.7978 126.721 32.8734 124.646 32.8734 122.099V119.001C32.8734 116.454 30.7978 114.378 28.2511 114.378Z" fill="#1600E5"/>
</g>
<path d="M50.4335 135.818C57.9174 135.818 63.9842 129.751 63.9842 122.267C63.9842 114.784 57.9174 108.717 50.4335 108.717C42.9497 108.717 36.8828 114.784 36.8828 122.267C36.8828 129.751 42.9497 135.818 50.4335 135.818Z" fill="#FF9D80"/>
<path d="M50.434 136.155C42.7753 136.155 36.5449 129.925 36.5449 122.266C36.5449 114.607 42.7753 108.377 50.434 108.377C58.0927 108.377 64.3231 114.607 64.3231 122.266C64.3231 129.925 58.0927 136.155 50.434 136.155ZM50.434 109.054C43.147 109.054 37.2217 114.979 37.2217 122.266C37.2217 129.553 43.147 135.478 50.434 135.478C57.721 135.478 63.6463 129.553 63.6463 122.266C63.6463 114.979 57.721 109.054 50.434 109.054Z" fill="#1600E5"/>
<mask id="mask2_5051_79575" style="mask-type:alpha" maskUnits="userSpaceOnUse" x="36" y="108" width="29" height="29">
<path d="M50.4335 135.818C57.9174 135.818 63.9842 129.751 63.9842 122.267C63.9842 114.784 57.9174 108.717 50.4335 108.717C42.9497 108.717 36.8828 114.784 36.8828 122.267C36.8828 129.751 42.9497 135.818 50.4335 135.818Z" fill="#90EFBC"/>
<path d="M50.434 136.155C42.7753 136.155 36.5449 129.925 36.5449 122.266C36.5449 114.607 42.7753 108.377 50.434 108.377C58.0927 108.377 64.3231 114.607 64.3231 122.266C64.3231 129.925 58.0927 136.155 50.434 136.155ZM50.434 109.054C43.147 109.054 37.2217 114.979 37.2217 122.266C37.2217 129.553 43.147 135.478 50.434 135.478C57.721 135.478 63.6463 129.553 63.6463 122.266C63.6463 114.979 57.721 109.054 50.434 109.054Z" fill="#1600E5"/>
</mask>
<g mask="url(#mask2_5051_79575)">
<path d="M40.375 135.463V134.12C40.375 130.301 43.463 127.213 47.2822 127.213H53.3879C57.2071 127.213 60.2951 130.301 60.2951 134.12V135.463H40.375Z" fill="#1600E5"/>
<path d="M60.296 135.963H40.376C40.0948 135.963 39.875 135.743 39.875 135.462V134.119C39.875 130.038 43.2037 126.711 47.2831 126.711H53.3888C57.4697 126.711 60.797 130.04 60.797 134.119V135.462C60.797 135.733 60.5771 135.963 60.296 135.963ZM40.8769 134.961H59.7951V134.119C59.7951 130.59 56.9179 127.713 53.3888 127.713H47.2831C43.754 127.713 40.8769 130.59 40.8769 134.119V134.961Z" fill="#1600E5"/>
<path d="M50.3341 127.222C47.5064 127.222 45.2109 124.926 45.2109 122.099V119C45.2109 116.172 47.5064 113.877 50.3341 113.877C53.1619 113.877 55.4573 116.172 55.4573 119V122.099C55.4573 124.926 53.1619 127.222 50.3341 127.222Z" fill="#F3F6E6"/>
<path d="M50.3331 127.722C47.2347 127.722 44.709 125.196 44.709 122.098V118.999C44.709 115.901 47.2347 113.375 50.3331 113.375C53.4316 113.375 55.9573 115.901 55.9573 118.999V122.098C55.9573 125.196 53.4316 127.722 50.3331 127.722ZM50.3331 114.378C47.7865 114.378 45.7109 116.454 45.7109 119.001V122.099C45.7109 124.646 47.7865 126.721 50.3331 126.721C52.8798 126.721 54.9554 124.646 54.9554 122.099V119.001C54.9554 116.454 52.8798 114.378 50.3331 114.378Z" fill="#1600E5"/>
</g>
<path d="M72.5137 135.82C79.9975 135.82 86.0644 129.753 86.0644 122.27C86.0644 114.786 79.9975 108.719 72.5137 108.719C65.0298 108.719 58.9629 114.786 58.9629 122.27C58.9629 129.753 65.0298 135.82 72.5137 135.82Z" fill="#D4BBF6"/>
<path d="M72.5142 136.155C64.8554 136.155 58.625 129.925 58.625 122.266C58.625 114.607 64.8554 108.377 72.5142 108.377C80.1729 108.377 86.4033 114.607 86.4033 122.266C86.4033 129.925 80.1729 136.155 72.5142 136.155ZM72.5142 109.054C65.2271 109.054 59.3018 114.979 59.3018 122.266C59.3018 129.553 65.2271 135.478 72.5142 135.478C79.8012 135.478 85.7265 129.553 85.7265 122.266C85.7265 114.979 79.8012 109.054 72.5142 109.054Z" fill="#1600E5"/>
<mask id="mask3_5051_79575" style="mask-type:alpha" maskUnits="userSpaceOnUse" x="58" y="108" width="29" height="29">
<path d="M72.5137 135.82C79.9975 135.82 86.0644 129.753 86.0644 122.27C86.0644 114.786 79.9975 108.719 72.5137 108.719C65.0298 108.719 58.9629 114.786 58.9629 122.27C58.9629 129.753 65.0298 135.82 72.5137 135.82Z" fill="#90EFBC"/>
<path d="M72.5142 136.155C64.8554 136.155 58.625 129.925 58.625 122.266C58.625 114.607 64.8554 108.377 72.5142 108.377C80.1729 108.377 86.4033 114.607 86.4033 122.266C86.4033 129.925 80.1729 136.155 72.5142 136.155ZM72.5142 109.054C65.2271 109.054 59.3018 114.979 59.3018 122.266C59.3018 129.553 65.2271 135.478 72.5142 135.478C79.8012 135.478 85.7265 129.553 85.7265 122.266C85.7265 114.979 79.8012 109.054 72.5142 109.054Z" fill="#1600E5"/>
</mask>
<g mask="url(#mask3_5051_79575)">
<path d="M62.4531 135.461V134.118C62.4531 130.299 65.5411 127.211 69.3604 127.211H75.4661C79.2853 127.211 82.3733 130.299 82.3733 134.118V135.461H62.4531Z" fill="#1600E5"/>
<path d="M82.3742 135.961H62.4541C62.1729 135.961 61.9531 135.741 61.9531 135.46V134.117C61.9531 130.036 65.2819 126.709 69.3613 126.709H75.467C79.5479 126.709 82.8752 130.038 82.8752 134.117V135.46C82.8752 135.731 82.6554 135.961 82.3742 135.961ZM62.955 134.959H81.8733V134.117C81.8733 130.588 78.9961 127.711 75.467 127.711H69.3613C65.8322 127.711 62.955 130.588 62.955 134.117V134.959Z" fill="#1600E5"/>
<path d="M72.4084 127.218C69.5806 127.218 67.2852 124.923 67.2852 122.095V118.996C67.2852 116.168 69.5806 113.873 72.4084 113.873C75.2362 113.873 77.5316 116.168 77.5316 118.996V122.095C77.5316 124.923 75.2362 127.218 72.4084 127.218Z" fill="#F3F6E6"/>
<path d="M72.4093 127.718C69.3109 127.718 66.7852 125.192 66.7852 122.094V118.995C66.7852 115.897 69.3109 113.371 72.4093 113.371C75.5078 113.371 78.0335 115.897 78.0335 118.995V122.094C78.0335 125.192 75.5078 127.718 72.4093 127.718ZM72.4093 114.375C69.8627 114.375 67.7871 116.45 67.7871 118.997V122.095C67.7871 124.642 69.8627 126.717 72.4093 126.717C74.956 126.717 77.0316 124.642 77.0316 122.095V118.997C77.0316 116.45 74.956 114.375 72.4093 114.375Z" fill="#1600E5"/>
</g>
<path d="M94.5937 135.822C102.078 135.822 108.145 129.755 108.145 122.271C108.145 114.788 102.078 108.721 94.5937 108.721C87.1099 108.721 81.043 114.788 81.043 122.271C81.043 129.755 87.1099 135.822 94.5937 135.822Z" fill="#4DE593"/>
<path d="M94.5942 136.155C86.9355 136.155 80.7051 129.925 80.7051 122.266C80.7051 114.607 86.9355 108.377 94.5942 108.377C102.253 108.377 108.483 114.607 108.483 122.266C108.483 129.925 102.253 136.155 94.5942 136.155ZM94.5942 109.054C87.3072 109.054 81.3819 114.979 81.3819 122.266C81.3819 129.553 87.3072 135.478 94.5942 135.478C101.881 135.478 107.807 129.553 107.807 122.266C107.807 114.979 101.881 109.054 94.5942 109.054Z" fill="#1600E5"/>
<mask id="mask4_5051_79575" style="mask-type:alpha" maskUnits="userSpaceOnUse" x="80" y="108" width="29" height="29">
<path d="M94.5937 135.822C102.078 135.822 108.145 129.755 108.145 122.271C108.145 114.788 102.078 108.721 94.5937 108.721C87.1099 108.721 81.043 114.788 81.043 122.271C81.043 129.755 87.1099 135.822 94.5937 135.822Z" fill="#90EFBC"/>
<path d="M94.5942 136.157C86.9355 136.157 80.7051 129.927 80.7051 122.268C80.7051 114.609 86.9355 108.379 94.5942 108.379C102.253 108.379 108.483 114.609 108.483 122.268C108.483 129.927 102.253 136.157 94.5942 136.157ZM94.5942 109.056C87.3072 109.056 81.3819 114.981 81.3819 122.268C81.3819 129.555 87.3072 135.48 94.5942 135.48C101.881 135.48 107.807 129.555 107.807 122.268C107.807 114.981 101.881 109.056 94.5942 109.056Z" fill="#1600E5"/>
</mask>
<g mask="url(#mask4_5051_79575)">
<path d="M84.5352 135.463V134.12C84.5352 130.301 87.6231 127.213 91.4424 127.213H97.5481C101.367 127.213 104.455 130.301 104.455 134.12V135.463H84.5352Z" fill="#1600E5"/>
<path d="M104.456 135.963H84.5361C84.255 135.963 84.0352 135.743 84.0352 135.462V134.119C84.0352 130.038 87.3639 126.711 91.4433 126.711H97.549C101.63 126.711 104.957 130.04 104.957 134.119V135.462C104.957 135.733 104.737 135.963 104.456 135.963ZM85.0371 134.961H103.955V134.119C103.955 130.59 101.078 127.713 97.549 127.713H91.4433C87.9142 127.713 85.0371 130.59 85.0371 134.119V134.961Z" fill="#1600E5"/>
<path d="M94.4943 127.22C91.6665 127.22 89.3711 124.924 89.3711 122.097V118.998C89.3711 116.17 91.6665 113.875 94.4943 113.875C97.3221 113.875 99.6175 116.17 99.6175 118.998V122.097C99.6175 124.924 97.3221 127.22 94.4943 127.22Z" fill="#F3F6E6"/>
<path d="M94.4933 127.722C91.3949 127.722 88.8691 125.196 88.8691 122.098V118.999C88.8691 115.901 91.3949 113.375 94.4933 113.375C97.5918 113.375 100.117 115.901 100.117 118.999V122.098C100.117 125.196 97.5918 127.722 94.4933 127.722ZM94.4933 114.378C91.9467 114.378 89.8711 116.454 89.8711 119.001V122.099C89.8711 124.646 91.9467 126.721 94.4933 126.721C97.04 126.721 99.1156 124.646 99.1156 122.099V119.001C99.1156 116.454 97.04 114.378 94.4933 114.378Z" fill="#1600E5"/>
</g>
<g clip-path="url(#clip1_5051_79575)">
<mask id="mask5_5051_79575" style="mask-type:luminance" maskUnits="userSpaceOnUse" x="121" y="73" width="82" height="81">
<path d="M202.502 73.2539H121.914V153.836H202.502V73.2539Z" fill="white"/>
</mask>
<g mask="url(#mask5_5051_79575)">
<path d="M202.502 108.991C202.489 107.065 201.703 105.225 200.32 103.888C199.04 102.636 197.348 101.902 195.562 101.821H195.166L168.199 102.191C167.915 102.191 167.633 102.215 167.353 102.259H167.285C168.362 98.5374 171.593 87.278 172.519 83.3243C173.051 81.0393 172.737 78.8776 171.62 77.0857C170.461 75.2533 168.552 73.9672 166.208 73.4595C165.922 73.4043 164.831 73.3914 161.096 73.4319C160.25 73.4448 159.393 73.4448 159.27 73.4448C158.111 73.3896 157.389 73.568 156.898 74.0335C156.217 74.6756 156.217 75.647 156.202 76.9882C156.19 78.1509 156.189 79.5878 155.766 81.4073C153.721 90.4222 148.023 96.7161 141.997 103.365C139.435 106.196 136.79 109.111 134.471 112.257C126.694 121.645 126.834 135.302 134.799 144.53C134.812 144.558 134.839 144.585 134.854 144.613C136.337 146.39 138.052 147.959 139.953 149.278C144.224 152.253 149.301 153.843 154.499 153.834H154.732L171.842 153.683C172.074 153.683 172.305 153.67 172.523 153.655H172.618L185.133 153.504C189.141 153.464 192.373 150.507 192.346 146.911C192.333 144.736 191.119 142.821 189.293 141.658C191.104 141.618 192.844 140.935 194.201 139.73C195.579 138.472 196.328 136.816 196.315 135.051C196.302 133.287 195.524 131.631 194.121 130.413C193.85 130.18 193.562 129.964 193.262 129.771C195.128 129.718 196.901 128.943 198.21 127.61C201.004 124.789 200.991 120.23 198.179 117.426C198.157 117.404 198.137 117.384 198.115 117.364C197.685 116.943 197.203 116.575 196.683 116.269C200.086 115.565 202.518 112.545 202.491 109.059V109.046C202.5 109.03 202.505 109.011 202.504 108.991H202.502Z" fill="#1600E5"/>
<path d="M175.946 139.689L175.741 116.171C175.673 109.002 169.66 103.216 162.325 103.284L147.696 103.407C133.736 103.53 122.476 114.749 122.599 128.402C122.721 142.055 134.174 153.068 148.134 152.945L162.762 152.822C170.098 152.754 176.014 146.857 175.946 139.687V139.689Z" fill="#FFD766"/>
<path d="M147.901 153.631C133.668 153.631 122.04 142.358 121.915 128.404C121.792 114.368 133.353 102.847 147.696 102.711L162.324 102.588H162.447C170.095 102.588 176.354 108.648 176.422 116.16L176.627 139.678C176.66 143.333 175.207 146.846 172.605 149.405C169.989 152.017 166.451 153.487 162.762 153.494L148.133 153.618C148.057 153.629 147.98 153.634 147.901 153.631ZM162.449 103.957H162.339L147.71 104.08C134.131 104.203 123.17 115.108 123.28 128.391C123.389 141.606 134.417 152.264 147.901 152.264H148.133L162.762 152.14C166.094 152.129 169.286 150.801 171.65 148.446C173.987 146.145 175.292 142.989 175.264 139.704L175.059 116.186C174.991 109.413 169.346 103.955 162.449 103.955V103.957Z" fill="#1600E5"/>
<path d="M165.04 152.988L147.93 153.139C142.794 153.185 137.77 151.635 133.547 148.707C131.695 147.421 130.021 145.893 128.57 144.164V144.151L129.129 142.933L135.946 128.118L138.263 123.069L146.866 104.353L147.301 103.409L147.464 103.04L164.575 102.889C165.13 102.887 165.686 102.918 166.238 102.984C172.298 103.7 177.062 108.524 177.718 114.614C177.773 115.052 177.786 115.489 177.8 115.94L178.005 139.717C178.005 139.936 178.005 140.155 177.993 140.374C177.993 140.538 177.98 140.702 177.965 140.867C177.434 147.656 171.826 152.916 165.04 152.988Z" fill="#FFD766"/>
<path d="M147.696 153.822C142.496 153.829 137.421 152.24 133.15 149.266C131.243 147.955 129.529 146.385 128.051 144.601C127.888 144.411 127.846 144.146 127.941 143.916C127.941 143.904 127.954 143.876 127.954 143.861L146.862 102.751C146.971 102.509 147.212 102.354 147.476 102.354L164.586 102.203C165.169 102.201 165.751 102.233 166.332 102.299C166.973 102.367 167.606 102.49 168.227 102.669C173.731 104.146 177.77 108.861 178.398 114.544C178.453 115.008 178.48 115.473 178.48 115.939L178.685 139.716C178.685 139.963 178.685 140.195 178.673 140.413C178.673 140.564 178.66 140.741 178.645 140.934C178.065 148.072 172.162 153.592 165.026 153.671L147.916 153.822H147.698H147.696ZM129.373 144.04C130.714 145.589 132.245 146.963 133.926 148.13C138.033 150.983 142.919 152.49 147.914 152.438L165.024 152.287C171.462 152.217 176.788 147.235 177.308 140.796C177.321 140.632 177.336 140.482 177.336 140.331C177.348 140.125 177.348 139.92 177.348 139.702L177.143 115.924C177.143 115.508 177.119 115.093 177.076 114.679C176.499 109.559 172.859 105.316 167.9 103.98C167.341 103.83 166.771 103.721 166.196 103.653C165.672 103.585 165.143 103.557 164.616 103.57L147.928 103.721L147.505 104.624L129.373 144.04Z" fill="#1600E5"/>
<path d="M157.418 109.496C157.39 105.844 157.759 102.888 161.385 102.86L188.365 102.49C192.003 102.461 194.975 105.394 195.005 109.044C195.034 112.694 192.111 115.676 188.473 115.706L164.055 116.048C160.422 116.081 157.449 113.15 157.416 109.504C157.416 109.5 157.416 109.498 157.416 109.494L157.418 109.496Z" fill="#FFD766"/>
<path d="M164.001 116.733C160.013 116.736 156.768 113.511 156.735 109.51C156.707 106.787 156.667 102.219 161.383 102.177L188.351 101.807H188.419C192.432 101.788 195.701 105.037 195.719 109.065C195.737 113.092 192.499 116.372 188.486 116.391L164.068 116.733H164.001ZM158.098 109.495C158.12 112.744 160.75 115.366 163.988 115.364H164.043L188.461 115.022C191.721 115.007 194.351 112.343 194.336 109.07C194.322 105.799 191.666 103.159 188.406 103.174H188.351L161.383 103.543C158.561 103.571 158.057 105.569 158.098 109.495Z" fill="#1600E5"/>
<path d="M175.658 139.499L175.453 116.515C175.385 109.511 169.482 103.861 162.269 103.914L147.886 104.038C134.157 104.161 123.087 115.119 123.21 128.457C123.333 141.795 134.593 152.562 148.309 152.439L162.692 152.315C169.905 152.26 175.726 146.502 175.658 139.496V139.499Z" fill="#FFD766"/>
<path d="M151.5 132.549C166.96 125.188 156.777 108.868 159.462 103.258C159.462 103.258 163.92 87.9364 165.037 83.1475C166.127 78.4965 163.334 74.9936 159.242 74.105C155.15 73.2164 150.952 75.6651 149.617 81.534C146.386 95.7481 134.047 103.56 126.521 115.051" fill="#FFD766"/>
<path d="M151.5 133.233C151.236 133.233 150.994 133.078 150.886 132.836C150.725 132.491 150.871 132.081 151.214 131.919C161.33 127.103 159.98 118.334 158.89 111.275C158.372 107.896 157.921 104.968 158.835 103.013C159.121 102.028 163.32 87.5678 164.385 82.985C164.835 81.0569 164.59 79.2631 163.661 77.8005C162.707 76.2827 161.084 75.2009 159.121 74.7777C155.685 74.0252 151.622 75.8724 150.3 81.7008C148.174 91.0726 142.093 97.7749 136.203 104.275C133.027 107.791 129.726 111.417 127.096 115.439C126.897 115.751 126.485 115.841 126.173 115.643C126.168 115.639 126.16 115.635 126.155 115.632C125.843 115.424 125.757 115.001 125.964 114.688C128.649 110.583 131.977 106.904 135.193 103.36C141.219 96.6986 146.919 90.4176 148.963 81.4027C149.632 78.4609 151.034 76.1631 153.013 74.7409C154.859 73.4181 157.181 72.949 159.394 73.4549C161.725 73.9609 163.646 75.2469 164.806 77.0811C165.923 78.8731 166.238 81.0219 165.705 83.3198C164.601 88.0664 160.17 103.322 160.115 103.471C160.102 103.511 160.088 103.539 160.075 103.579C159.311 105.167 159.734 107.916 160.225 111.104C161.315 118.204 162.815 127.945 151.785 133.198C151.692 133.226 151.597 133.238 151.5 133.238V133.233Z" fill="#1600E5"/>
<path d="M169.211 109.221C169.222 105.656 172.066 102.752 175.619 102.683L188.367 102.504C191.973 102.475 194.922 105.383 194.951 109.002C194.981 112.621 192.081 115.579 188.475 115.611L175.946 115.774C172.325 115.872 169.31 113.004 169.213 109.37C169.213 109.32 169.211 109.271 169.211 109.223V109.221Z" fill="#FFD766"/>
<path d="M175.767 116.447C173.87 116.451 172.048 115.704 170.696 114.368C169.302 113.018 168.52 111.154 168.527 109.211C168.526 107.322 169.266 105.508 170.586 104.163C171.908 102.809 173.701 102.025 175.59 101.974L188.337 101.795C190.262 101.775 192.116 102.524 193.491 103.874C196.337 106.671 196.385 111.252 193.599 114.109C192.249 115.492 190.403 116.276 188.475 116.284L175.96 116.447H175.769H175.767ZM188.42 103.177H188.365L175.617 103.355C172.436 103.411 169.886 106.018 169.892 109.211C169.888 110.784 170.524 112.291 171.65 113.384C172.791 114.504 174.335 115.112 175.93 115.067L188.46 114.904C190.024 114.895 191.522 114.26 192.618 113.139C194.88 110.856 194.87 107.166 192.596 104.895C192.581 104.881 192.565 104.864 192.55 104.849C191.44 103.777 189.96 103.179 188.42 103.181V103.177Z" fill="#1600E5"/>
<path d="M167.016 122.67C167.027 119.105 169.871 116.202 173.424 116.132L186.172 115.953C189.778 115.924 192.727 118.833 192.756 122.451C192.785 126.07 189.886 129.029 186.28 129.06L173.75 129.224C170.129 129.321 167.115 126.453 167.017 122.819C167.017 122.77 167.016 122.72 167.016 122.672V122.67Z" fill="#FFD766"/>
<path d="M173.574 129.908C171.676 129.912 169.854 129.165 168.502 127.829C165.663 125.053 165.604 120.494 168.372 117.646C168.379 117.639 168.387 117.631 168.394 117.624C169.716 116.27 171.509 115.486 173.398 115.435L186.145 115.256C188.07 115.236 189.924 115.985 191.299 117.335C194.145 120.132 194.193 124.713 191.407 127.57C190.057 128.953 188.211 129.737 186.283 129.744L173.768 129.908H173.577H173.574ZM167.698 122.671C167.694 124.244 168.33 125.75 169.456 126.843C170.597 127.964 172.141 128.571 173.737 128.527L186.266 128.363C187.83 128.354 189.328 127.719 190.424 126.598C192.686 124.315 192.676 120.625 190.402 118.354C190.387 118.34 190.371 118.323 190.356 118.308C189.237 117.214 187.733 116.608 186.171 116.625L173.423 116.804C170.242 116.87 167.696 119.479 167.698 122.672V122.671Z" fill="#1600E5"/>
<path d="M163.047 135.257C163.047 132.083 165.897 129.483 169.455 129.388L182.203 129.209C185.842 129.182 188.815 131.781 188.842 135.023C188.87 138.265 185.952 140.919 182.311 140.947L169.781 141.098C166.073 141.193 163.032 138.553 163.047 135.257Z" fill="#FFD766"/>
<path d="M169.605 141.796C167.624 141.811 165.713 141.055 164.276 139.689C163.067 138.532 162.378 136.933 162.367 135.257C162.367 133.521 163.116 131.892 164.453 130.66C165.825 129.429 167.591 128.735 169.43 128.704L182.177 128.526H182.245C184.098 128.509 185.893 129.166 187.304 130.373C188.708 131.604 189.485 133.247 189.498 135.011C189.511 136.775 188.761 138.444 187.384 139.689C185.979 140.935 184.173 141.625 182.3 141.632L169.785 141.783C169.726 141.794 169.668 141.8 169.607 141.796H169.605ZM182.258 129.907H182.203L169.455 130.086C166.252 130.169 163.73 132.439 163.715 135.27C163.728 136.577 164.268 137.82 165.215 138.718C166.375 139.853 168.023 140.482 169.756 140.442L182.285 140.291C183.827 140.298 185.318 139.734 186.47 138.703C187.56 137.719 188.148 136.418 188.133 135.051C188.119 133.684 187.507 132.397 186.402 131.425C185.313 130.441 183.84 129.907 182.258 129.907Z" fill="#1600E5"/>
<path d="M159.082 147.133C159.082 143.973 161.932 141.373 165.491 141.292L178.238 141.114C181.877 141.086 184.85 143.673 184.877 146.9C184.905 150.127 181.987 152.768 178.346 152.809L165.817 152.96C162.122 153.043 159.082 150.401 159.082 147.131V147.133Z" fill="#FFD766"/>
<path d="M165.639 153.644C163.607 153.644 161.671 152.879 160.294 151.523C159.093 150.373 158.408 148.783 158.398 147.118C158.398 145.394 159.148 143.766 160.485 142.535C161.856 141.308 163.624 140.62 165.461 140.593L178.208 140.414H178.276C182.258 140.414 185.502 143.301 185.529 146.885C185.556 150.483 182.326 153.438 178.316 153.478L165.802 153.629C165.748 153.64 165.693 153.646 165.639 153.642V153.644ZM178.304 141.796H178.249L165.501 141.974C162.353 142.057 159.776 144.368 159.761 147.131C159.778 148.424 160.314 149.659 161.246 150.551C162.406 151.686 164.054 152.316 165.8 152.275L178.329 152.124C181.588 152.097 184.219 149.758 184.192 146.912C184.165 144.081 181.52 141.796 178.302 141.796H178.304Z" fill="#1600E5"/>
</g>
</g>
</g>
<path d="M133.865 1.8125H12.8066V63.6199H133.865V1.8125Z" fill="white"/>
<path d="M133.894 64.5026H12.8354C12.022 64.5026 11.3828 64.1137 11.3828 63.6188V1.81145C11.3828 1.31657 12.022 0.927734 12.8354 0.927734H133.894C134.707 0.927734 135.347 1.31657 135.347 1.81145V63.6188C135.347 64.1137 134.678 64.5026 133.894 64.5026ZM13.2257 62.7351H133.475V2.69517H13.2548V62.7351H13.2257Z" fill="#1600E5"/>
<path d="M135.346 22.6244L12.3984 22.276V1.96094L135.346 2.30939V22.6244Z" fill="#80EDFF"/>
<path d="M133.923 23.6576L12.818 23.3041C12.0045 23.3041 11.3652 22.9152 11.3652 22.4204V1.81148C11.3652 1.5817 11.5105 1.35193 11.8011 1.19286C12.0626 1.03378 12.4403 0.927734 12.818 0.927734L133.893 1.28123C134.707 1.28123 135.346 1.67008 135.346 2.16497V22.7739C135.346 23.0036 135.201 23.2334 134.91 23.3925C134.678 23.5515 134.3 23.6576 133.923 23.6576ZM13.2376 21.5366L133.474 21.8901V3.03105L13.2376 2.67755V21.5366Z" fill="#1600E5"/>
<path d="M22.6048 15.8436C20.6433 15.8436 19.0352 14.2529 19.0352 12.2734C19.0352 10.2938 20.6256 8.70312 22.6048 8.70312C24.584 8.70312 26.1745 10.2938 26.1745 12.2734C26.1745 14.2529 24.5663 15.8436 22.6048 15.8436ZM22.6048 10.4882C21.6152 10.4882 20.8023 11.3013 20.8023 12.291C20.8023 13.2808 21.6152 14.0938 22.6048 14.0938C23.5944 14.0938 24.4073 13.2808 24.4073 12.291C24.4073 11.3013 23.5944 10.4882 22.6048 10.4882Z" fill="#1600E5"/>
<path d="M31.511 15.8436C29.5495 15.8436 27.9414 14.2529 27.9414 12.2734C27.9414 10.2938 29.5318 8.70312 31.511 8.70312C33.4903 8.70312 35.0807 10.2938 35.0807 12.2734C35.0807 14.2529 33.4726 15.8436 31.511 15.8436ZM31.511 10.4882C30.5214 10.4882 29.7086 11.3013 29.7086 12.291C29.7086 13.2808 30.5214 14.0938 31.511 14.0938C32.5007 14.0938 33.3136 13.2808 33.3136 12.291C33.2959 11.3013 32.5007 10.4882 31.511 10.4882Z" fill="#1600E5"/>
<path d="M40.4173 15.8436C38.4558 15.8436 36.8477 14.2529 36.8477 12.2734C36.8477 10.2938 38.4381 8.70312 40.4173 8.70312C42.3965 8.70312 43.9869 10.2938 43.9869 12.2734C43.9869 14.2529 42.3788 15.8436 40.4173 15.8436ZM40.4173 10.4882C39.4277 10.4882 38.6148 11.3013 38.6148 12.291C38.6148 13.2808 39.4277 14.0938 40.4173 14.0938C41.4069 14.0938 42.2198 13.2808 42.2198 12.291C42.2021 11.3013 41.4069 10.4882 40.4173 10.4882Z" fill="#1600E5"/>
<rect x="20.1387" y="32.6621" width="29.1204" height="3.39758" rx="1.69879" fill="#1600E5"/>
<rect x="20.1387" y="40.4297" width="39.0932" height="3.88295" rx="1.94148" fill="#1600E5"/>
<rect x="20.1387" y="48.6816" width="52.2572" height="3.88295" rx="1.94148" fill="#1600E5"/>
<g clip-path="url(#clip2_5051_79575)">
<mask id="mask6_5051_79575" style="mask-type:luminance" maskUnits="userSpaceOnUse" x="93" y="18" width="30" height="38">
<path d="M93.5674 55.1692V19.0303H122.431V55.1692H93.5674Z" fill="white" stroke="white" stroke-width="1.03318"/>
</mask>
<g mask="url(#mask6_5051_79575)">
<path d="M122.038 28.5726L122.054 54.7991H93.9463V19.4014H112.674L122.038 28.5726Z" fill="#F3F6E6" stroke="#1600E5" stroke-width="1.03318"/>
<mask id="path-74-inside-1_5051_79575" fill="white">
<path d="M122.57 55.6858H93.4287C93.2166 55.6858 93.0508 55.5227 93.0508 55.3152V18.8843C93.0508 18.6768 93.2166 18.5137 93.4287 18.5137H112.883C112.981 18.5137 113.079 18.5503 113.148 18.6246L122.819 28.0952C122.887 28.1618 122.933 28.2583 122.933 28.3549L122.948 55.3163C122.948 55.4128 122.909 55.5094 122.834 55.5759C122.766 55.6503 122.668 55.6869 122.568 55.6869L122.57 55.6858ZM93.8067 54.9457H122.192L122.177 28.5102L112.725 19.2538H93.8067V54.9457Z"/>
</mask>
<path d="M122.57 55.6858H93.4287C93.2166 55.6858 93.0508 55.5227 93.0508 55.3152V18.8843C93.0508 18.6768 93.2166 18.5137 93.4287 18.5137H112.883C112.981 18.5137 113.079 18.5503 113.148 18.6246L122.819 28.0952C122.887 28.1618 122.933 28.2583 122.933 28.3549L122.948 55.3163C122.948 55.4128 122.909 55.5094 122.834 55.5759C122.766 55.6503 122.668 55.6869 122.568 55.6869L122.57 55.6858ZM93.8067 54.9457H122.192L122.177 28.5102L112.725 19.2538H93.8067V54.9457Z" fill="#1600E5"/>
<path d="M122.57 55.6858L123.295 56.4213L125.088 54.6526H122.57V55.6858ZM113.148 18.6246L112.39 19.3265L112.407 19.3451L112.425 19.3628L113.148 18.6246ZM122.819 28.0952L123.543 27.3586L123.542 27.357L122.819 28.0952ZM122.933 28.3549H121.9V28.3554L122.933 28.3549ZM122.948 55.3163H123.981L123.981 55.3157L122.948 55.3163ZM122.834 55.5759L122.151 54.8006L122.108 54.8383L122.07 54.8804L122.834 55.5759ZM122.568 55.6869L121.843 54.9514L120.05 56.7201H122.568V55.6869ZM93.8067 54.9457H92.7735V55.9789H93.8067V54.9457ZM122.192 54.9457V55.9789H123.225L123.225 54.9451L122.192 54.9457ZM122.177 28.5102L123.21 28.5096L123.21 28.0757L122.9 27.772L122.177 28.5102ZM112.725 19.2538L113.448 18.5156L113.147 18.2206H112.725V19.2538ZM93.8067 19.2538V18.2206H92.7735V19.2538H93.8067ZM122.57 54.6526H93.4287V56.719H122.57V54.6526ZM93.4287 54.6526C93.769 54.6526 94.084 54.934 94.084 55.3152H92.0176C92.0176 56.1114 92.6643 56.719 93.4287 56.719V54.6526ZM94.084 55.3152V18.8843H92.0176V55.3152H94.084ZM94.084 18.8843C94.084 19.2655 93.769 19.5468 93.4287 19.5468V17.4805C92.6643 17.4805 92.0176 18.0881 92.0176 18.8843H94.084ZM93.4287 19.5468H112.883V17.4805H93.4287V19.5468ZM112.883 19.5468C112.734 19.5468 112.543 19.4913 112.39 19.3265L113.906 17.9228C113.616 17.6093 113.229 17.4805 112.883 17.4805V19.5468ZM112.425 19.3628L122.096 28.8334L123.542 27.357L113.871 17.8865L112.425 19.3628ZM122.094 28.8318C122.036 28.7748 121.991 28.7093 121.959 28.6376C121.927 28.5658 121.9 28.4701 121.9 28.3549H123.966C123.966 27.944 123.78 27.5915 123.543 27.3586L122.094 28.8318ZM121.9 28.3554L121.914 55.3169L123.981 55.3157L123.966 28.3543L121.9 28.3554ZM121.914 55.3163C121.914 55.1474 121.981 54.95 122.151 54.8006L123.516 56.3513C123.837 56.0687 123.981 55.6782 123.981 55.3163H121.914ZM122.07 54.8804C122.227 54.7072 122.424 54.6537 122.568 54.6537V56.7201C122.912 56.7201 123.304 56.5934 123.598 56.2715L122.07 54.8804ZM123.294 56.4224L123.295 56.4213L121.844 54.9503L121.843 54.9514L123.294 56.4224ZM93.8067 55.9789H122.192V53.9125H93.8067V55.9789ZM123.225 54.9451L123.21 28.5096L121.144 28.5108L121.158 54.9463L123.225 54.9451ZM122.9 27.772L113.448 18.5156L112.002 19.9919L121.454 29.2484L122.9 27.772ZM112.725 18.2206H93.8067V20.287H112.725V18.2206ZM92.7735 19.2538V54.9457H94.8398V19.2538H92.7735Z" fill="#1600E5" mask="url(#path-74-inside-1_5051_79575)"/>
<path d="M113.399 27.8387V20.1124L121.301 27.8387H113.399Z" fill="#F3F6E6" stroke="#1600E5" stroke-width="1.03318"/>
<mask id="path-77-inside-2_5051_79575" fill="white">
<path d="M122.569 28.7244H112.884C112.672 28.7244 112.506 28.5613 112.506 28.3538V18.8844C112.506 18.7368 112.596 18.6025 112.741 18.5437C112.884 18.4849 113.043 18.5215 113.149 18.6247L122.834 28.0953C122.94 28.1985 122.978 28.3616 122.918 28.4948C122.858 28.6279 122.722 28.7244 122.57 28.7244H122.569ZM113.262 27.9843H121.654L113.262 19.7798V27.9843Z"/>
</mask>
<path d="M122.569 28.7244H112.884C112.672 28.7244 112.506 28.5613 112.506 28.3538V18.8844C112.506 18.7368 112.596 18.6025 112.741 18.5437C112.884 18.4849 113.043 18.5215 113.149 18.6247L122.834 28.0953C122.94 28.1985 122.978 28.3616 122.918 28.4948C122.858 28.6279 122.722 28.7244 122.57 28.7244H122.569ZM113.262 27.9843H121.654L113.262 19.7798V27.9843Z" fill="#1600E5"/>
<path d="M112.741 18.5437L113.13 19.5006L113.133 19.4995L112.741 18.5437ZM113.149 18.6247L113.871 17.886L113.869 17.8843L113.149 18.6247ZM122.834 28.0953L122.112 28.834L122.114 28.8358L122.834 28.0953ZM113.262 27.9843H112.229V29.0175H113.262V27.9843ZM121.654 27.9843V29.0175H124.189L122.377 27.2455L121.654 27.9843ZM113.262 19.7798L113.984 19.041L112.229 17.3249V19.7798H113.262ZM122.569 27.6913H112.884V29.7576H122.569V27.6913ZM112.884 27.6913C113.224 27.6913 113.539 27.9726 113.539 28.3538H111.473C111.473 29.15 112.119 29.7576 112.884 29.7576V27.6913ZM113.539 28.3538V18.8844H111.473V28.3538H113.539ZM113.539 18.8844C113.539 19.1701 113.363 19.406 113.13 19.5006L112.351 17.5868C111.83 17.7991 111.473 18.3035 111.473 18.8844H113.539ZM113.133 19.4995C112.875 19.6052 112.602 19.5336 112.428 19.3652L113.869 17.8843C113.484 17.5094 112.892 17.3646 112.348 17.5879L113.133 19.4995ZM112.427 19.3634L122.112 28.834L123.557 27.3566L113.871 17.886L112.427 19.3634ZM122.114 28.8358C121.937 28.6635 121.842 28.3689 121.975 28.0715L123.86 28.918C124.113 28.3543 123.944 27.7335 123.555 27.3548L122.114 28.8358ZM121.975 28.0715C122.069 27.862 122.284 27.6913 122.57 27.6913V29.7576C123.159 29.7576 123.647 29.3939 123.86 28.918L121.975 28.0715ZM122.57 27.6913H122.569V29.7576H122.57V27.6913ZM113.262 29.0175H121.654V26.9512H113.262V29.0175ZM122.377 27.2455L113.984 19.041L112.539 20.5186L120.932 28.7231L122.377 27.2455ZM112.229 19.7798V27.9843H114.295V19.7798H112.229Z" fill="#1600E5" mask="url(#path-77-inside-2_5051_79575)"/>
</g>
<mask id="mask7_5051_79575" style="mask-type:luminance" maskUnits="userSpaceOnUse" x="88" y="13" width="31" height="38">
<path d="M88.8291 50.3981V14.3701H117.58V50.3981H88.8291Z" fill="white" stroke="white" stroke-width="1.03318"/>
</mask>
<g mask="url(#mask7_5051_79575)">
<path d="M117.189 23.8815L117.203 50.0282H89.206V14.7392H107.86L117.189 23.8815Z" fill="#F3F6E6" stroke="#1600E5" stroke-width="1.03318"/>
<mask id="path-81-inside-3_5051_79575" fill="white">
<path d="M117.72 50.9147H88.6893C88.4783 50.9147 88.3125 50.7527 88.3125 50.5452V14.223C88.3125 14.0166 88.4783 13.8535 88.6893 13.8535H108.07C108.168 13.8535 108.267 13.8901 108.334 13.9645L117.969 23.4073C118.037 23.4739 118.082 23.5693 118.082 23.6658L118.096 50.5463C118.096 50.6417 118.059 50.7382 117.984 50.8048C117.916 50.8792 117.818 50.9158 117.72 50.9158V50.9147ZM89.0661 50.1768H117.344L117.329 23.8201L107.912 14.5914H89.0661V50.1768Z"/>
</mask>
<path d="M117.72 50.9147H88.6893C88.4783 50.9147 88.3125 50.7527 88.3125 50.5452V14.223C88.3125 14.0166 88.4783 13.8535 88.6893 13.8535H108.07C108.168 13.8535 108.267 13.8901 108.334 13.9645L117.969 23.4073C118.037 23.4739 118.082 23.5693 118.082 23.6658L118.096 50.5463C118.096 50.6417 118.059 50.7382 117.984 50.8048C117.916 50.8792 117.818 50.9158 117.72 50.9158V50.9147ZM89.0661 50.1768H117.344L117.329 23.8201L107.912 14.5914H89.0661V50.1768Z" fill="#1600E5"/>
<path d="M117.72 50.9147H118.753V49.8815H117.72V50.9147ZM108.334 13.9645L107.57 14.6601L107.59 14.6818L107.611 14.7024L108.334 13.9645ZM117.969 23.4073L118.693 22.6707L118.692 22.6694L117.969 23.4073ZM118.082 23.6658H117.049V23.6664L118.082 23.6658ZM118.096 50.5463H119.13V50.5457L118.096 50.5463ZM117.984 50.8048L117.301 50.0295L117.258 50.0671L117.22 50.1092L117.984 50.8048ZM117.72 50.9158H116.686V51.949H117.72V50.9158ZM89.0661 50.1768H88.0329V51.21H89.0661V50.1768ZM117.344 50.1768V51.21H118.378L118.377 50.1762L117.344 50.1768ZM117.329 23.8201L118.362 23.8195L118.362 23.3858L118.052 23.0822L117.329 23.8201ZM107.912 14.5914L108.636 13.8535L108.334 13.5582H107.912V14.5914ZM89.0661 14.5914V13.5582H88.0329V14.5914H89.0661ZM117.72 49.8815H88.6893V51.9478H117.72V49.8815ZM88.6893 49.8815C89.0286 49.8815 89.3457 50.1619 89.3457 50.5452H87.2793C87.2793 51.3434 87.9281 51.9478 88.6893 51.9478V49.8815ZM89.3457 50.5452V14.223H87.2793V50.5452H89.3457ZM89.3457 14.223C89.3457 14.6053 89.0307 14.8867 88.6893 14.8867V12.8203C87.926 12.8203 87.2793 13.4279 87.2793 14.223H89.3457ZM88.6893 14.8867H108.07V12.8203H88.6893V14.8867ZM108.07 14.8867C107.923 14.8867 107.727 14.8321 107.57 14.6601L109.098 13.2689C108.806 12.9481 108.414 12.8203 108.07 12.8203V14.8867ZM107.611 14.7024L117.246 24.1452L118.692 22.6694L109.057 13.2266L107.611 14.7024ZM117.244 24.1439C117.14 24.0408 117.049 23.8795 117.049 23.6658H119.115C119.115 23.2591 118.934 22.9069 118.693 22.6707L117.244 24.1439ZM117.049 23.6664L117.063 50.5468L119.13 50.5457L119.115 23.6653L117.049 23.6664ZM117.063 50.5463C117.063 50.383 117.127 50.1829 117.301 50.0295L118.667 51.5801C118.992 51.2936 119.13 50.9004 119.13 50.5463H117.063ZM117.22 50.1092C117.376 49.9372 117.572 49.8826 117.72 49.8826V51.949C118.063 51.949 118.456 51.8212 118.748 51.5004L117.22 50.1092ZM118.753 50.9158V50.9147H116.686V50.9158H118.753ZM89.0661 51.21H117.344V49.1436H89.0661V51.21ZM118.377 50.1762L118.362 23.8195L116.296 23.8207L116.311 50.1774L118.377 50.1762ZM118.052 23.0822L108.636 13.8535L107.189 15.3293L116.606 24.558L118.052 23.0822ZM107.912 13.5582H89.0661V15.6246H107.912V13.5582ZM88.0329 14.5914V50.1768H90.0993V14.5914H88.0329Z" fill="#1600E5" mask="url(#path-81-inside-3_5051_79575)"/>
<path d="M108.587 23.1478V15.4509L116.453 23.1478H108.587Z" fill="#F3F6E6" stroke="#1600E5" stroke-width="1.03318"/>
<mask id="path-84-inside-4_5051_79575" fill="white">
<path d="M117.719 24.0343H108.07C107.859 24.0343 107.693 23.8723 107.693 23.6648V14.2231C107.693 14.0755 107.784 13.9424 107.927 13.8836C108.07 13.8248 108.228 13.8614 108.334 13.9646L117.983 23.4074C118.088 23.5106 118.127 23.6737 118.066 23.8057C118.005 23.9378 117.87 24.0343 117.719 24.0343ZM108.447 23.2964H116.808L108.447 15.1163V23.2964Z"/>
</mask>
<path d="M117.719 24.0343H108.07C107.859 24.0343 107.693 23.8723 107.693 23.6648V14.2231C107.693 14.0755 107.784 13.9424 107.927 13.8836C108.07 13.8248 108.228 13.8614 108.334 13.9646L117.983 23.4074C118.088 23.5106 118.127 23.6737 118.066 23.8057C118.005 23.9378 117.87 24.0343 117.719 24.0343ZM108.447 23.2964H116.808L108.447 15.1163V23.2964Z" fill="#1600E5"/>
<path d="M108.334 13.9646L109.057 13.2261L109.055 13.2241L108.334 13.9646ZM117.983 23.4074L118.708 22.6708L118.706 22.669L117.983 23.4074ZM108.447 23.2964H107.414V24.3296H108.447V23.2964ZM116.808 23.2964V24.3296H119.341L117.53 22.5579L116.808 23.2964ZM108.447 15.1163L109.17 14.3778L107.414 12.6601V15.1163H108.447ZM117.719 23.0011H108.07V25.0675H117.719V23.0011ZM108.07 23.0011C108.409 23.0011 108.727 23.2816 108.727 23.6648H106.66C106.66 24.463 107.309 25.0675 108.07 25.0675V23.0011ZM108.727 23.6648V14.2231H106.66V23.6648H108.727ZM108.727 14.2231C108.727 14.5109 108.548 14.7453 108.319 14.8394L107.535 12.9278C107.019 13.1394 106.66 13.6401 106.66 14.2231H108.727ZM108.319 14.8394C108.061 14.9455 107.786 14.8725 107.614 14.705L109.055 13.2241C108.67 12.8502 108.08 12.704 107.535 12.9278L108.319 14.8394ZM107.612 14.703L117.261 24.1458L118.706 22.669L109.057 13.2261L107.612 14.703ZM117.259 24.144C117.091 23.979 116.985 23.6832 117.128 23.3729L119.004 24.2386C119.269 23.6642 119.086 23.0422 118.708 22.6708L117.259 24.144ZM117.128 23.3729C117.219 23.1759 117.427 23.0011 117.719 23.0011V25.0675C118.312 25.0675 118.791 24.6996 119.004 24.2386L117.128 23.3729ZM108.447 24.3296H116.808V22.2633H108.447V24.3296ZM117.53 22.5579L109.17 14.3778L107.724 15.8549L116.085 24.0349L117.53 22.5579ZM107.414 15.1163V23.2964H109.48V15.1163H107.414Z" fill="#1600E5" mask="url(#path-84-inside-4_5051_79575)"/>
</g>
<mask id="mask8_5051_79575" style="mask-type:luminance" maskUnits="userSpaceOnUse" x="83" y="9" width="31" height="38">
<path d="M84.2041 45.627V9.70995H112.842V45.627H84.2041Z" fill="white" stroke="white" stroke-width="1.03318"/>
</mask>
<g mask="url(#mask8_5051_79575)">
<path d="M112.451 19.1935L112.465 45.2593H84.5791V10.0791H103.159L112.451 19.1935Z" fill="#F3F6E6" stroke="#1600E5" stroke-width="1.03318"/>
<mask id="path-88-inside-5_5051_79575" fill="white">
<path d="M112.983 46.1436H84.0632C83.8533 46.1436 83.6875 45.9816 83.6875 45.7752V9.56175C83.6875 9.35536 83.8522 9.19336 84.0632 9.19336H103.371C103.468 9.19336 103.566 9.22998 103.634 9.30432L113.231 18.7183C113.299 18.7849 113.344 18.8803 113.344 18.9757L113.359 45.7752C113.359 45.8706 113.321 45.966 113.246 46.0326C113.178 46.1058 113.081 46.1436 112.983 46.1436ZM84.4377 45.4079H112.608L112.594 19.1311L103.213 9.92903H84.4377V45.4079Z"/>
</mask>
<path d="M112.983 46.1436H84.0632C83.8533 46.1436 83.6875 45.9816 83.6875 45.7752V9.56175C83.6875 9.35536 83.8522 9.19336 84.0632 9.19336H103.371C103.468 9.19336 103.566 9.22998 103.634 9.30432L113.231 18.7183C113.299 18.7849 113.344 18.8803 113.344 18.9757L113.359 45.7752C113.359 45.8706 113.321 45.966 113.246 46.0326C113.178 46.1058 113.081 46.1436 112.983 46.1436ZM84.4377 45.4079H112.608L112.594 19.1311L103.213 9.92903H84.4377V45.4079Z" fill="#1600E5"/>
<path d="M103.634 9.30432L102.87 9.9999L102.889 10.0215L102.91 10.0419L103.634 9.30432ZM113.231 18.7183L113.956 17.9817L113.955 17.9807L113.231 18.7183ZM113.344 18.9757H112.311V18.9763L113.344 18.9757ZM113.359 45.7752H114.392V45.7746L113.359 45.7752ZM113.246 46.0326L112.563 45.2573L112.523 45.2923L112.487 45.3313L113.246 46.0326ZM84.4377 45.4079H83.4046V46.4411H84.4377V45.4079ZM112.608 45.4079V46.4411H113.642L113.642 45.4073L112.608 45.4079ZM112.594 19.1311L113.627 19.1305L113.627 18.697L113.317 18.3935L112.594 19.1311ZM103.213 9.92903L103.936 9.19147L103.635 8.89586H103.213V9.92903ZM84.4377 9.92903V8.89586H83.4046V9.92903H84.4377ZM112.983 45.1104H84.0632V47.1767H112.983V45.1104ZM84.0632 45.1104C84.4036 45.1104 84.7207 45.3908 84.7207 45.7752H82.6543C82.6543 46.5723 83.3031 47.1767 84.0632 47.1767V45.1104ZM84.7207 45.7752V9.56175H82.6543V45.7752H84.7207ZM84.7207 9.56175C84.7207 9.94408 84.4045 10.2265 84.0632 10.2265V8.16018C83.2999 8.16018 82.6543 8.76664 82.6543 9.56175H84.7207ZM84.0632 10.2265H103.371V8.16018H84.0632V10.2265ZM103.371 10.2265C103.221 10.2265 103.025 10.1708 102.87 9.9999L104.398 8.60874C104.107 8.28912 103.715 8.16018 103.371 8.16018V10.2265ZM102.91 10.0419L112.508 19.4559L113.955 17.9807L104.357 8.56674L102.91 10.0419ZM112.507 19.4549C112.403 19.3531 112.311 19.1921 112.311 18.9757H114.377C114.377 18.5685 114.194 18.2166 113.956 17.9817L112.507 19.4549ZM112.311 18.9763L112.325 45.7757L114.392 45.7746L114.377 18.9752L112.311 18.9763ZM112.325 45.7752C112.325 45.6083 112.391 45.4086 112.563 45.2573L113.929 46.8079C114.252 46.5235 114.392 46.1328 114.392 45.7752H112.325ZM112.487 45.3313C112.635 45.1708 112.825 45.1104 112.983 45.1104V47.1767C113.338 47.1767 113.721 47.0409 114.005 46.7339L112.487 45.3313ZM84.4377 46.4411H112.608V44.3747H84.4377V46.4411ZM113.642 45.4073L113.627 19.1305L111.561 19.1317L111.575 45.4085L113.642 45.4073ZM113.317 18.3935L103.936 9.19147L102.489 10.6666L111.87 19.8686L113.317 18.3935ZM103.213 8.89586H84.4377V10.9622H103.213V8.89586ZM83.4046 9.92903V45.4079H85.4709V9.92903H83.4046Z" fill="#1600E5" mask="url(#path-88-inside-5_5051_79575)"/>
<path d="M103.888 18.4599V10.7915L111.717 18.4599H103.888Z" fill="#F3F6E6" stroke="#1600E5" stroke-width="1.03318"/>
<mask id="path-91-inside-6_5051_79575" fill="white">
<path d="M112.983 19.3442H103.37C103.16 19.3442 102.994 19.1822 102.994 18.9758V9.56184C102.994 9.41426 103.084 9.28221 103.227 9.2234C103.369 9.16459 103.527 9.20121 103.632 9.30441L113.245 18.7184C113.35 18.8216 113.387 18.9836 113.327 19.1156C113.267 19.2477 113.132 19.3442 112.982 19.3442H112.983ZM103.746 18.6085H112.075L103.746 10.4517V18.6074V18.6085Z"/>
</mask>
<path d="M112.983 19.3442H103.37C103.16 19.3442 102.994 19.1822 102.994 18.9758V9.56184C102.994 9.41426 103.084 9.28221 103.227 9.2234C103.369 9.16459 103.527 9.20121 103.632 9.30441L113.245 18.7184C113.35 18.8216 113.387 18.9836 113.327 19.1156C113.267 19.2477 113.132 19.3442 112.982 19.3442H112.983ZM103.746 18.6085H112.075L103.746 10.4517V18.6074V18.6085Z" fill="#1600E5"/>
<path d="M103.632 9.30441L102.907 10.041L102.909 10.0426L103.632 9.30441ZM113.245 18.7184L113.969 17.9818L113.968 17.9802L113.245 18.7184ZM103.746 18.6085H102.712V19.6417H103.746V18.6085ZM112.075 18.6085V19.6417H114.607L112.798 17.8704L112.075 18.6085ZM103.746 10.4517L104.468 9.71358L102.712 7.99391V10.4517H103.746ZM112.983 18.311H103.37V20.3774H112.983V18.311ZM103.37 18.311C103.71 18.311 104.027 18.5915 104.027 18.9758H101.961C101.961 19.7729 102.61 20.3774 103.37 20.3774V18.311ZM104.027 18.9758V9.56184H101.961V18.9758H104.027ZM104.027 9.56184C104.027 9.85181 103.847 10.0847 103.622 10.1781L102.832 8.26871C102.321 8.47974 101.961 8.97671 101.961 9.56184H104.027ZM103.622 10.1781C103.36 10.2863 103.082 10.2127 102.907 10.041L104.356 8.56781C103.972 8.18974 103.377 8.04293 102.832 8.26871L103.622 10.1781ZM102.909 10.0426L112.522 19.4566L113.968 17.9802L104.354 8.56623L102.909 10.0426ZM112.52 19.455C112.349 19.2861 112.249 18.9918 112.386 18.6894L114.268 19.5418C114.525 18.9754 114.351 18.3571 113.969 17.9818L112.52 19.455ZM112.386 18.6894C112.478 18.4853 112.691 18.311 112.982 18.311V20.3774C113.573 20.3774 114.056 20.0101 114.268 19.5418L112.386 18.6894ZM112.982 20.3774H112.983V18.311H112.982V20.3774ZM103.746 19.6417H112.075V17.5754H103.746V19.6417ZM112.798 17.8704L104.468 9.71358L103.023 11.1899L111.352 19.3467L112.798 17.8704ZM102.712 10.4517V18.6074H104.779V10.4517H102.712ZM102.712 18.6074V18.6085H104.779V18.6074H102.712Z" fill="#1600E5" mask="url(#path-91-inside-6_5051_79575)"/>
<path d="M90.1859 33.625L94.7616 24.8896H96.9882L97.8691 33.625H96.0951L95.9483 31.5451H93.1221L92.0944 33.625H90.1859ZM93.8684 29.9914H95.8627L95.7036 27.7402C95.6873 27.5037 95.671 27.2631 95.6547 27.0184C95.6384 26.7737 95.6343 26.5249 95.6424 26.2721H95.618C95.5364 26.4923 95.4467 26.7125 95.3488 26.9327C95.2509 27.1448 95.1408 27.3773 95.0185 27.6301L93.8684 29.9914ZM100.902 33.7473C100.584 33.7473 100.278 33.6699 99.9848 33.5149C99.6993 33.3518 99.4669 33.0948 99.2875 32.7441C99.108 32.3852 99.0183 31.9122 99.0183 31.3249C99.0183 30.8926 99.0632 30.4603 99.1529 30.0281C99.2507 29.5958 99.3853 29.188 99.5566 28.8046C99.736 28.4213 99.9522 28.0828 100.205 27.7891C100.458 27.4874 100.743 27.2508 101.061 27.0795C101.388 26.9083 101.738 26.8226 102.114 26.8226C102.399 26.8226 102.644 26.8634 102.848 26.945C103.06 27.0265 103.239 27.1407 103.386 27.2875C103.541 27.4343 103.667 27.6056 103.765 27.8014H103.814L104.157 26.945H105.539L104.12 33.625H102.774L102.86 32.7564H102.811C102.656 32.9521 102.485 33.1234 102.297 33.2702C102.11 33.417 101.902 33.5353 101.673 33.625C101.445 33.7066 101.188 33.7473 100.902 33.7473ZM101.612 32.2914C101.857 32.2914 102.085 32.1936 102.297 31.9978C102.509 31.8021 102.689 31.5492 102.835 31.2393C102.99 30.9293 103.101 30.6031 103.166 30.2605C103.198 30.0974 103.219 29.9383 103.227 29.7834C103.243 29.6202 103.251 29.4449 103.251 29.2573C103.251 28.9718 103.178 28.7394 103.031 28.5599C102.884 28.3723 102.68 28.2785 102.419 28.2785C102.24 28.2785 102.073 28.3356 101.918 28.4498C101.763 28.564 101.616 28.719 101.477 28.9147C101.347 29.1105 101.233 29.3348 101.135 29.5876C101.045 29.8405 100.972 30.1096 100.915 30.3951C100.866 30.6724 100.841 30.9538 100.841 31.2393C100.841 31.59 100.906 31.8551 101.037 32.0345C101.176 32.2058 101.367 32.2914 101.612 32.2914Z" fill="#1600E5"/>
</g>
</g>
<defs>
<clipPath id="clip0_5051_79575">
<rect y="35.0215" width="218" height="134.313" fill="white"/>
</clipPath>
<clipPath id="clip1_5051_79575">
<rect width="80.5877" height="80.5877" fill="white" transform="translate(121.914 73.248)"/>
</clipPath>
<clipPath id="clip2_5051_79575">
<rect width="39.2607" height="46.4929" fill="white" transform="translate(83.6875 9.19336)"/>
</clipPath>
</defs>
</svg>
